<svg xmlns="http://www.w3.org/2000/svg" xmlns:xlink="http://www.w3.org/1999/xlink" width="33" height="32" viewBox="0 0 33 32">
  <defs>
    <linearGradient id="af-logo-dark-a" x1="103.175%" x2="3.076%" y1="0%" y2="100%">
      <stop offset="0%" stop-color="#FFF"/>
      <stop offset="100%" stop-color="#EDF7FF"/>
    </linearGradient>
    <linearGradient id="af-logo-dark-b" x1="106.661%" x2="0%" y1="42.811%" y2="57.189%">
      <stop offset="0%" stop-color="#FFF"/>
      <stop offset="100%" stop-color="#EDF7FF"/>
    </linearGradient>
    <polygon id="af-logo-dark-c" points=".259 .018 13.117 .018 13.117 5.425 .259 5.425"/>
    <linearGradient id="af-logo-dark-d" x1="106.661%" x2="0%" y1="41.161%" y2="58.839%">
      <stop offset="0%" stop-color="#FFF"/>
      <stop offset="100%" stop-color="#EDF7FF"/>
    </linearGradient>
    <linearGradient id="af-logo-dark-f" x1="101.493%" x2="4.561%" y1="0%" y2="100%">
      <stop offset="0%" stop-color="#FFF"/>
      <stop offset="100%" stop-color="#EDF7FF"/>
    </linearGradient>
    <linearGradient id="af-logo-dark-g" x1="64.923%" x2="36.831%" y1="0%" y2="100%">
      <stop offset="0%" stop-color="#FFF"/>
      <stop offset="100%" stop-color="#EDF7FF"/>
    </linearGradient>
  </defs>
  <g fill="none" fill-rule="evenodd">
    <path fill="url(#af-logo-dark-a)" fill-rule="nonzero" d="M15.5,0 L0,32 L5.73477943,32 L8.36997615,26.6398985 L10.9276759,21.3597939 L15.5,11.9601554 L20.0335756,21.3597939 L25.8461501,21.3597939 L15.5,0 Z M22.6690704,26.6798969 L25.226174,32 L31,32 L31,31.9993846 L28.4038499,26.6798969 L22.6690704,26.6798969 Z"/>
    <g transform="translate(1)">
      <path fill="url(#af-logo-dark-b)" fill-rule="nonzero" d="M2.61651923,21.5037621 L0.00834615385,26.909969 L13.3711346,26.909969 C13.8650481,26.909969 14.2653654,26.4928655 14.2653654,25.9789345 L14.2653654,22.4347966 C14.2653654,21.9205552 13.8650481,21.5037621 13.3711346,21.5037621 L2.61651923,21.5037621 Z"/>
      <g transform="translate(17.288)">
        <mask id="af-logo-dark-e" fill="#fff">
          <use xlink:href="#af-logo-dark-c"/>
        </mask>
        <path fill="url(#af-logo-dark-d)" fill-rule="nonzero" d="M13.1167558,0.949468966 L13.1167558,4.4936069 C13.1167558,5.00567586 12.7140538,5.42464138 12.222525,5.42464138 L3.46740962,5.42464138 L0.258909615,0.0184344828 L12.222525,0.0184344828 C12.7140538,0.0184344828 13.1167558,0.4374 13.1167558,0.949468966 L5.36657692,4.4936069" mask="url(#af-logo-dark-e)"/>
      </g>
      <polygon fill="url(#af-logo-dark-f)" fill-rule="nonzero" points="20.078 .018 25.232 5.425 22.683 5.418"/>
      <polygon fill="url(#af-logo-dark-g)" fill-rule="nonzero" points="11.491 26.909 14.265 26.91 14.265 21.504"/>
    </g>
  </g>
</svg>
