<svg id="Calque_1" data-name="Calque 1" xmlns="http://www.w3.org/2000/svg" viewBox="0 0 576.55 132.04"><defs><style>.cls-1{fill:#e61771;}.cls-2{fill:#203c78;}.cls-3{fill:#e61971;}.cls-4{fill:#fffefe;}.cls-5{fill:#e61871;}.cls-6{fill:#009ddb;}.cls-7{fill:#00b7ea;}.cls-8{fill:#233d79;}.cls-9{fill:#213c78;}.cls-10{fill:#e61a71;}.cls-11{fill:#006db4;}</style></defs><path class="cls-1" d="M66.3,51.38c-7.72,0-15.44,0-23.15-.06a98.54,98.54,0,0,1-10.31-.19A20.17,20.17,0,0,1,15.31,34a5.27,5.27,0,0,0-.19-.68v-3.6a2.87,2.87,0,0,0,.17-.57c1.22-8,5.79-13.27,13.21-16.23a37.07,37.07,0,0,1,4.86-1.2H111.6c-.09.06-.17.18-.27.19a20.15,20.15,0,0,0-12.9,7.48,6,6,0,0,0-.54.46L67,50.74c-.17.17-.31.37-.46.55Z" transform="translate(-15.1 -11.72)"/><path class="cls-2" d="M98.43,19.41a20.15,20.15,0,0,1,12.9-7.48c.1,0,.18-.13.27-.19h5c.91.23,1.84.42,2.74.69,8.1,2.49,12.77,8,14.3,16.28a22.63,22.63,0,0,1,.21,5c-.32.41-.2.92-.29,1.38-1,5.15-3.91,9-7.73,12.4-.39,0-.71.1-.82.53h0c-.4-.09-.69.16-1,.34a18.77,18.77,0,0,1-9.86,2.93c-6.63.12-13.26,0-19.9,0h0c0-6.38,0-12.76,0-19.14a22.42,22.42,0,0,1,1.53-8A38.76,38.76,0,0,1,98.43,19.41Z" transform="translate(-15.1 -11.72)"/><path class="cls-3" d="M185.28,11.74c1.56.24,3.13.42,4.67.73a13.65,13.65,0,0,1,10.47,16.6,11,11,0,0,1-5.24,6.55c.28.14.47.26.67.34,5.18,2,7.68,5.9,8.1,11.26.67,8.52-4.77,15.28-13.2,16.61a70.51,70.51,0,0,1-10.77.5c-3,0-5.92-.06-8.87,0-1.17,0-1.36-.37-1.36-1.41q0-24.9,0-49.79c0-.47-.06-.95-.09-1.42ZM179.55,48.3c0,2,0,3.92,0,5.87,0,.77.18,1.06,1,1,1.56-.06,3.12,0,4.68,0A14.34,14.34,0,0,0,190.8,54,5.42,5.42,0,0,0,194,50.48a6.51,6.51,0,0,0-4.21-8.28c-3.12-1.16-6.39-.79-9.61-.84-.69,0-.58.51-.58.94C179.55,44.3,179.56,46.3,179.55,48.3Zm0-21.92c0,1.63,0,3.27,0,4.91,0,.37-.14.88.5.87,2.7,0,5.45.23,8-.88a4.59,4.59,0,0,0,3-4.26c.18-3.15-1.6-5.28-4.87-5.92a40.85,40.85,0,0,0-5.74-.26c-.8,0-.92.3-.9,1C179.58,23.34,179.55,24.86,179.56,26.38Z" transform="translate(-15.1 -11.72)"/><path class="cls-4" d="M33.36,11.74a37.07,37.07,0,0,0-4.86,1.2c-7.42,3-12,8.22-13.21,16.23a2.87,2.87,0,0,1-.17.57c0-5.76,0-11.52,0-17.28,0-.6.14-.74.74-.74C21.68,11.75,27.52,11.74,33.36,11.74Z" transform="translate(-15.1 -11.72)"/><path class="cls-5" d="M125.87,47.49c3.82-3.35,6.77-7.25,7.73-12.4.09-.46,0-1,.29-1.38,0,.32.06.64.06,1q0,37.55,0,75.1c0,9.22-5.48,17-13.78,19.77-11,3.67-23-3.5-25.36-15.11a24,24,0,0,1-.46-4.64q0-14.52,0-29c0-.48,0-1,0-1.44a.82.82,0,0,0,.12-.2q13.9-13.89,27.76-27.79c1-1,2.28-1.92,2.92-3.31h0C125.58,48.23,125.63,47.71,125.87,47.49Z" transform="translate(-15.1 -11.72)"/><path class="cls-6" d="M94.42,79.12a.82.82,0,0,1-.12.2c-.35.33-.71.64-1,1q-22,22-44,44a20.3,20.3,0,0,1-26.69,1.91,7.92,7.92,0,0,1-1.72-1.65c.36-.31.74-.6,1.07-.94Q57.56,88,93.2,52.34c.31-.31.58-.66.87-1l.28-.06h0q0,13.55,0,27.1C94.34,78.64,94.4,78.88,94.42,79.12Z" transform="translate(-15.1 -11.72)"/><path class="cls-7" d="M94.07,51.36c-.29.32-.56.67-.87,1Q57.56,88,21.9,123.63c-.33.34-.71.63-1.07.94a18.28,18.28,0,0,1-5.49-13.83,20.2,20.2,0,0,1,6.17-14.48Q43.4,74.32,65.32,52.43c.34-.34.65-.7,1-1l.25-.09c.48,0,1,0,1.43,0Z" transform="translate(-15.1 -11.72)"/><path class="cls-3" d="M493.88,28c4.79-5.6,14-5.54,18.69-1.69a13.27,13.27,0,0,1,2.59,2.65c.42.61.65.6,1.1,0,5.28-7.06,16.62-6.4,21.79-2.71,3.59,2.56,5.28,6.2,6,10.4a30.71,30.71,0,0,1,.39,5.25c0,7,0,14.08,0,21.12,0,1-.17,1.4-1.29,1.35-2.31-.09-4.64-.08-7,0-1,0-1.35-.19-1.34-1.29.06-7,.05-13.92,0-20.88a14.18,14.18,0,0,0-1.12-6,6.32,6.32,0,0,0-5.95-3.9c-3-.1-5.36.83-6.77,3.59a16.54,16.54,0,0,0-1.5,7.69c0,6.52,0,13,0,19.56,0,1-.28,1.21-1.21,1.18q-3.6-.09-7.2,0c-.92,0-1.21-.19-1.21-1.17,0-6.91,0-13.83,0-20.75a14,14,0,0,0-1.13-6c-1.36-3-3.83-4.32-7.54-4.11-2.84.15-4.73,1.73-5.74,4.8a20.59,20.59,0,0,0-.89,6.38q-.06,9.84,0,19.68c0,.89-.22,1.16-1.13,1.14-2.48-.07-5-.06-7.44,0-.8,0-1-.24-1-1q0-18.76,0-37.55c0-.82.29-1,1.05-1,2.2,0,4.4,0,6.6,0,.9,0,1.23.26,1.13,1.16A19,19,0,0,0,493.88,28Z" transform="translate(-15.1 -11.72)"/><path class="cls-8" d="M195.21,102c3.43,1.19,6.07,3.15,7.46,6.37,3.62,8.38,0,18.85-10.32,21.41a33,33,0,0,1-7.6.85c-4.6.05-9.2,0-13.8,0-.83,0-1.19-.11-1.19-1.09q0-25.25,0-50.51c0-.79.14-1.11,1-1.1,5,.08,10.08-.08,15.11.22,4.87.29,9.2,1.68,12.21,5.81a12.89,12.89,0,0,1,2,12.25C199.48,98.29,198.56,99.32,195.21,102Zm-15.65,12.43c0,2.07,0,4.15,0,6.23,0,.62.18.86.82.84,1.15,0,2.31,0,3.47,0a17.74,17.74,0,0,0,6.7-1.07,5.58,5.58,0,0,0,3.51-4c.95-3.84-1.11-7.14-5.17-8.26-2.86-.79-5.8-.45-8.7-.53-.72,0-.62.44-.62.88Zm0-21.69c0,1.64,0,3.28,0,4.92,0,.43,0,.8.6.79,2.39,0,4.8.16,7.13-.58a4.84,4.84,0,0,0,3.54-3.26,5.29,5.29,0,0,0-3.61-6.92c-2.33-.78-4.75-.41-7.13-.48-.63,0-.52.47-.53.86Z" transform="translate(-15.1 -11.72)"/><path class="cls-9" d="M332.67,127a16,16,0,0,1-13.84,4.78c-8.66-1-14.24-6.09-17-14.18-3.8-11.14,2.12-23.33,13-26.76,5.67-1.79,11.21-1.53,16.07,2.47.86.7,1.64,1.51,2.59,2.4,0-1.18.05-2.34,0-3.49-.05-.81.14-1.12,1-1.1,2.23.07,4.47,0,6.71,0,.74,0,1,.12,1,1q0,25.3,0,50.62c0,.75-.16,1-1,1q-3.83-.09-7.67,0c-.78,0-.92-.26-.91-1C332.69,137.64,332.67,132.48,332.67,127Zm.48-16.5a12,12,0,0,0-.51-3.19c-2.21-8.1-11.51-11.41-17.86-6.26-4.09,3.33-5.18,7.84-4.19,12.86a11.35,11.35,0,0,0,14.16,8.91C329.64,121.49,333.13,116.57,333.15,110.53Z" transform="translate(-15.1 -11.72)"/><path class="cls-8" d="M242.19,95.84c0-1.33,0-2.57,0-3.8,0-.61.15-.85.8-.84,2.36,0,4.72,0,7.08,0,.82,0,.9.33.89,1,0,2.12,0,4.24,0,6.36,0,10.24,0,20.48,0,30.72,0,1.27-.37,1.53-1.54,1.48-2.11-.09-4.24,0-6.36,0-.66,0-.92-.17-.89-.87,0-1.18,0-2.36,0-3.79a20.46,20.46,0,0,1-9,5.21,18.29,18.29,0,0,1-21.34-9.38c-4.31-8.38-3.29-18.64,2.53-25.41,7-8.1,20.07-9.07,27.55-.69A2.16,2.16,0,0,0,242.19,95.84Zm-.28,15.06c0-.44,0-.88,0-1.32a11.47,11.47,0,0,0-13.47-10.77c-5.34.88-9.19,5.43-9.64,11.41-.66,8.56,6.94,15,15,12.63C238.68,121.42,241.94,116.67,241.91,110.9Z" transform="translate(-15.1 -11.72)"/><path class="cls-10" d="M465.63,29.59c0-1.39.05-2.57,0-3.75,0-.76.26-.95,1-.95,2.32,0,4.64.12,6.95-.1.91-.09.92.43.92,1.1q0,10.86,0,21.72c0,5.2,0,10.4,0,15.6,0,.9-.22,1.17-1.13,1.15-2.24-.07-4.48-.06-6.72,0-.81,0-1-.27-1-1,.05-1.11,0-2.23,0-3.57-.61.54-1.08,1-1.59,1.39-7.62,6-17.9,6.1-25-.6a19.94,19.94,0,0,1-6-11.62c-1.11-6.78,0-13.08,4.49-18.49,6.82-8.24,19.78-9.55,27.54-1.28C465.21,29.25,465.33,29.34,465.63,29.59ZM442.22,44.87c0,.42,0,1,.1,1.53.63,4.44,2.82,7.83,7,9.63a10.81,10.81,0,0,0,11.53-1.39c3.73-2.92,4.84-7,4.52-11.55A11.49,11.49,0,0,0,450.3,32.87C445.47,34.46,442.3,39.1,442.22,44.87Z" transform="translate(-15.1 -11.72)"/><path class="cls-9" d="M431.82,120.08a19.6,19.6,0,0,1-9.76,9.91,20.64,20.64,0,0,1-29.22-16.6,21.31,21.31,0,0,1,15.54-23.17,20.57,20.57,0,0,1,25.06,15.59,22.87,22.87,0,0,1,.17,8.33c-.13.85-.45,1.06-1.29,1.06-9.4,0-18.8,0-28.19,0-1.42,0-1.44,0-.88,1.35,2.36,5.66,9.3,8.37,14.57,5.69a3.38,3.38,0,0,0,1.21-.76c1.13-1.49,2.69-1.43,4.31-1.4C426.09,120.12,428.85,120.08,431.82,120.08Zm-7.31-12.63c-.65-5-5.42-9.06-10.65-9.11-5.58,0-10.52,3.93-11.27,9.11Z" transform="translate(-15.1 -11.72)"/><path class="cls-3" d="M583,59.68a19.67,19.67,0,0,1-12.8,5.83,17.65,17.65,0,0,1-16.4-8.05c-5.85-8.48-4.83-21.08,2.1-28.14a18.48,18.48,0,0,1,27.1.41c0-1.45,0-2.69,0-3.93,0-.68.19-.91.87-.91,2.36,0,4.72.11,7.07-.1.57-.05.82.18.76.76a3.84,3.84,0,0,0,0,.48c0,12.35,0,24.71,0,37.06,0,1-.22,1.31-1.24,1.27-2.2-.08-4.4,0-6.6,0-.67,0-.9-.19-.88-.88C583,62.28,583,61.09,583,59.68ZM571.19,32.34A10.61,10.61,0,0,0,564,34.86c-3.72,3.19-4.94,7.3-4.33,12A11.62,11.62,0,0,0,574,56.66c4.8-1.21,7.94-4.85,8.64-10.44C583.57,38.35,578.26,32.27,571.19,32.34Z" transform="translate(-15.1 -11.72)"/><path class="cls-10" d="M404.36,44.52a21,21,0,1,1-42,0,21,21,0,0,1,42,0Zm-32.46.15c0,.2,0,.4,0,.6.31,4.76,2.35,8.49,6.72,10.56a10.56,10.56,0,0,0,11.43-1.14c5.83-4.33,6.4-13.53,1.25-18.81-4.2-4.3-10.15-4.8-14.72-1.14A12.11,12.11,0,0,0,371.9,44.67Z" transform="translate(-15.1 -11.72)"/><path class="cls-10" d="M252.75,44.65a21,21,0,1,1-42-.3,21.21,21.21,0,0,1,21.22-20.82A20.93,20.93,0,0,1,252.75,44.65Zm-9.54.19a13.2,13.2,0,0,0-1.29-5.79c-3.41-7.15-11.93-8.93-17.71-3.69a13,13,0,0,0-3.05,14.12,11.38,11.38,0,0,0,13.43,7.11C239.56,55.39,243.14,50.52,243.21,44.84Z" transform="translate(-15.1 -11.72)"/><path class="cls-8" d="M377.31,126.94c-1.88,2.16-3.68,3.89-6.23,4.57-8.05,2.13-19.78-2.46-20.13-14.32-.25-8.39-.08-16.79-.13-25.18,0-.77.35-.81.95-.81,2.51,0,5,.06,7.55,0,1,0,1.07.39,1.07,1.2q0,9.84,0,19.67a16.81,16.81,0,0,0,1.28,6.89,6.83,6.83,0,0,0,6.6,4.33,7,7,0,0,0,6.73-3.94,18.15,18.15,0,0,0,1.56-8.28q0-9.35,0-18.71c0-.9.17-1.22,1.15-1.19,2.47.08,5,0,7.43,0,.73,0,.95.17.95.93q0,18.82,0,37.66c0,.62-.1.95-.84.94q-3.54-.06-7.08,0c-.72,0-.88-.28-.85-.92C377.35,128.94,377.31,128.11,377.31,126.94Z" transform="translate(-15.1 -11.72)"/><path class="cls-10" d="M285.87,60.6c-2,2.44-4.11,4.19-7,4.78-7.81,1.61-19-2.83-19.39-14.59-.26-8.35-.09-16.72-.13-25.08,0-.66.25-.79.84-.78,2.56,0,5.12,0,7.68,0,.88,0,1,.29,1,1.1,0,6.4,0,12.8,0,19.2a18.71,18.71,0,0,0,1,6.71c1.25,3.29,3.48,4.95,6.73,5,3.66,0,6-1.5,7.32-4.85a18.45,18.45,0,0,0,1.1-6.82c0-6.4,0-12.8,0-19.2,0-1,.27-1.28,1.27-1.25,2.43.07,4.87,0,7.31,0,.77,0,1,.2,1,1q0,18.76,0,37.55c0,.81-.25,1-1,1-2.24,0-4.48-.07-6.72,0-.95,0-1.16-.33-1.09-1.18S285.87,61.69,285.87,60.6Z" transform="translate(-15.1 -11.72)"/><path class="cls-8" d="M268.94,94.38a28.16,28.16,0,0,1,3.82-2.79c7.38-4.14,19.61-.8,21.95,10.41a26.58,26.58,0,0,1,.53,5.48c0,7.36,0,14.71,0,22.07,0,.88-.19,1.17-1.11,1.15q-3.6-.1-7.2,0c-1,0-1.28-.24-1.27-1.25,0-6.4,0-12.8,0-19.2a19.68,19.68,0,0,0-1.06-6.71c-1.17-3.19-3.44-4.87-6.64-4.92a7.93,7.93,0,0,0-7.34,4.85,18.3,18.3,0,0,0-1,7q0,9.54,0,19.07c0,.95-.24,1.23-1.2,1.21-2.48-.07-5,0-7.44,0-.73,0-.94-.2-.94-.94q0-18.84,0-37.67c0-.61.06-.94.81-.92,2.4,0,4.8,0,7.2,0,.74,0,.87.28.83.91S268.94,93.47,268.94,94.38Z" transform="translate(-15.1 -11.72)"/><path class="cls-10" d="M334.46,51.85c1.2,0,2.4.07,3.6,0,.89-.06,1.23.29,1.5,1.1,1,3,2.41,4.08,5.19,4a4,4,0,0,0,3.7-2.74,3.56,3.56,0,0,0-1.86-4.36,32.45,32.45,0,0,0-6.45-2.52,17.73,17.73,0,0,1-4.32-2c-7.08-4.79-6.25-15.38,1-19.75,7.5-4.52,17.19-1.19,19.67,6.8,1,3.34,1,3.34-2.38,3.34-1.76,0-3.52,0-5.28,0a1.13,1.13,0,0,1-1.35-1,3.11,3.11,0,0,0-2.6-2.36,3.78,3.78,0,0,0-3.78,1.29,2.86,2.86,0,0,0,.57,4.3,13.08,13.08,0,0,0,4.09,1.63,49.9,49.9,0,0,1,5.31,1.87c7.87,3.27,8.24,10.89,5.85,15.94-2.48,5.25-6.83,7.92-12.58,8.16-5.35.22-9.76-1.72-12.76-6.34a14.81,14.81,0,0,1-2-6.58c-.06-.57.12-.78.71-.77C331.66,51.88,333.06,51.85,334.46,51.85Z" transform="translate(-15.1 -11.72)"/><path class="cls-5" d="M313.64,28.15c3.2-3.3,7.14-3.81,11.15-4.14.87-.07,1.29.11,1.25,1.14-.08,2.19-.06,4.39,0,6.59,0,.81-.22,1.07-1.06,1.14a13.49,13.49,0,0,0-7,2.46,8.15,8.15,0,0,0-3.51,6.87c0,6.95,0,13.91,0,20.86,0,.95-.17,1.33-1.22,1.29-2.44-.08-4.88-.06-7.31,0-.81,0-1-.26-1-1q0-18.69,0-37.4c0-.82.21-1.12,1.07-1.1,2.19.06,4.39.05,6.59,0,.85,0,1.14.27,1.06,1.09C313.59,26.57,313.64,27.23,313.64,28.15Z" transform="translate(-15.1 -11.72)"/><path class="cls-5" d="M420.2,28.13c3.24-3.32,7.23-3.81,11.29-4.13.81-.06,1.13.18,1.1,1.05q-.07,3.36,0,6.72c0,.85-.29,1.05-1.09,1.11a14,14,0,0,0-5.5,1.53A8.62,8.62,0,0,0,421,42.6c0,6.8,0,13.6,0,20.4,0,1.12-.31,1.39-1.39,1.36-2.35-.08-4.72,0-7.08,0-.74,0-1-.17-1-1q0-18.78,0-37.56c0-.71.2-1,.95-1,2.27,0,4.56,0,6.84,0,.75,0,1,.25.93,1S420.2,27.16,420.2,28.13Z" transform="translate(-15.1 -11.72)"/><path class="cls-11" d="M94.07,51.36,68,51.33c-.47,0-1,0-1.43,0,.15-.18.29-.38.46-.55L97.89,19.87a6,6,0,0,1,.54-.46,38.76,38.76,0,0,0-2.54,4.71,22.42,22.42,0,0,0-1.53,8c-.06,6.38,0,12.76,0,19.14Z" transform="translate(-15.1 -11.72)"/><path class="cls-11" d="M94.42,79.12c0-.24-.08-.48-.08-.71q0-13.56,0-27.1c6.64,0,13.27.1,19.9,0a18.77,18.77,0,0,0,9.86-2.93c.3-.18.59-.43,1-.34-.64,1.39-1.89,2.27-2.92,3.31Q108.35,65.27,94.42,79.12Z" transform="translate(-15.1 -11.72)"/><path class="cls-11" d="M125.87,47.49c-.24.22-.29.74-.82.53C125.16,47.59,125.48,47.49,125.87,47.49Z" transform="translate(-15.1 -11.72)"/></svg>