<svg xmlns="http://www.w3.org/2000/svg" width="124" height="56" viewBox="0 0 124 56"><g fill="none" fill-rule="evenodd"><path d="M84.011475,17.994892 C82.6044864,17.994892 81.5362172,18.8010216 81.0802487,21.1153935 L78.7092123,33.4153703 C78.2271884,35.8987694 78.9958211,36.704899 80.5461141,36.704899 C82.0833795,36.704899 83.0865102,35.8467611 83.5424788,33.4153703 L85.9395705,21.46645 C86.4737051,18.8010216 85.4054359,17.994892 84.011475,17.994892 Z"/><path fill="#FF3537" fill-rule="nonzero" d="M84.6107479 10.0376132C80.4679481 9.81657766 76.4423973 11.4158347 73.5632817 14.3933132 73.3157559 14.6793592 73.1463962 15.0304156 73.0812578 15.4074762L68.4564341 38.0441142C68.3782681 38.447179 68.4043234 38.8502438 68.5476278 39.2403065 69.2380945 40.9435802 70.4757233 42.3738101 72.078127 43.2839564 75.0093533 44.9482238 78.7482953 45.117251 82.0312688 44.7791967 84.6498309 44.5191549 87.2683931 43.7520316 89.4049314 42.1787787 91.8280784 40.3974925 93.2480947 37.7450662 93.8473677 34.8456002L96.3095978 22.7926631C97.8598908 14.9263989 94.2642532 10.0376132 84.6107479 10.0376132ZM85.9395705 21.46645 83.5424788 33.4153703C83.0865102 35.8467611 82.0833795 36.704899 80.5461141 36.704899 78.9958211 36.704899 78.2271884 35.8987694 78.7092123 33.4153703L81.0802487 21.1153935C81.5362172 18.8010216 82.6044864 17.994892 84.011475 17.994892 85.4054359 17.994892 86.4737051 18.8010216 85.9395705 21.46645ZM111.929777 10.0376132C106.132463 10.0376132 101.78122 12.3779893 99.4883498 16.3176225 99.2668794 16.7206873 99.1756857 17.2017646 99.2538517 17.6568377 99.6837649 20.1272347 99.0584366 22.8316694 98.5894404 25.237056 98.1595272 27.4474112 97.7165864 29.6707685 97.2866732 31.8811238 96.895843 33.8574414 96.5831789 35.7297423 95.8275739 37.6150453 95.6451865 38.0571163 95.6451865 38.5641978 95.8275739 39.0062689 96.5050128 40.7095426 97.8338354 42.360808 99.4362391 43.2709543 102.354438 44.9222196 106.041269 45.0912468 109.311215 44.7791967 111.929777 44.532157 114.535311 43.7780358 116.684877 42.2307871 119.147108 40.4495008 120.606207 37.7840724 121.20548 34.8325981L123.66771 22.779661C125.191948 14.9263989 121.505116 10.0376132 111.929777 10.0376132ZM113.2586 21.46645 110.861508 33.4153703C110.405539 35.8467611 109.402409 36.704899 107.865143 36.704899 106.31485 36.704899 105.546217 35.8987694 106.028241 33.4153703L108.490471 21.1153935C108.94644 18.8010216 110.014709 17.994892 111.421698 17.994892 112.815659 17.994892 113.792734 18.8010216 113.2586 21.46645ZM24.6964825 28.6306013C24.5792334 28.578593 24.4619844 28.5525888 24.3317076 28.5525888L17.1795155 28.5525888C16.7496023 28.5395867 16.3717998 28.8516369 16.2936337 29.2677037L15.4859181 33.2983515C15.0299495 35.7817506 14.4176489 36.6918969 12.6198301 36.6918969 10.8220113 36.6918969 10.3530151 35.833759 10.8871497 33.0123055L13.1539647 21.765498C13.7662653 18.6449965 14.4306766 17.8908753 16.2806061 17.8908753 18.1305356 17.8908753 18.4171443 18.6970049 17.8048437 21.8175064L17.2707092 24.4699327C17.1274048 24.95101 17.4009859 25.4450894 17.8830098 25.5881124 17.9611758 25.6271186 27.2238509 25.6401207 27.2238509 25.6401207 27.6537641 25.6401207 28.0185389 25.3410727 28.1097326 24.9250058 28.3963414 23.4167634 28.7871716 21.8955189 28.8653376 20.3482703 28.9435037 18.7620153 28.7350609 17.1627583 28.2400094 15.6415138 26.8590761 11.9619225 23.1722448 10.0376132 16.801713 10.0376132 9.21960762 10.0376132 4.09973236 13.8992338 2.82302046 20.0752264L.360790371 32.3622011C-.629312733 37.3940098.360790371 41.2556304 4.04762167 43.3879731 6.14507693 44.5971674 8.63336236 44.8702113 11.0174264 44.9482238 13.3884628 45.0262364 15.6813331 44.9222196 17.9351205 44.1160901 19.6287179 43.517994 21.3223153 42.5558393 22.6771932 41.3596471 22.924719 41.1386116 23.0549957 40.8005572 23.002885 40.4625029 22.7032486 38.6422104 22.9116913 36.847922 23.2764662 35.0536336 23.641241 33.2333411 24.2144586 31.5170652 25.152451 29.8137915 25.3739214 29.3977246 25.1394233 28.8256327 24.6964825 28.6306013ZM49.4230047 44.7921987C49.9180563 44.7921987 50.3479695 44.4411423 50.4391632 43.9470629 50.921187 41.5936847 51.52046 38.6682145 52.0024838 36.3148363 52.8362549 32.2191781 53.6700259 28.1235199 54.4907693 24.0148595 54.9337101 21.8045043 55.5850938 19.6071511 55.4287617 17.3317855 55.0770145 12.4169956 51.559543 10.0376132 44.1989081 10.0376132 37.8935146 10.0376132 33.6204381 12.1699559 31.4057338 15.7845368 31.31454 15.9405619 31.31454 16.109589 31.3405954 16.2916183L31.3405954 16.3176225C31.7183979 18.1899234 31.8617023 19.9972138 31.6011488 21.8955189 31.5360105 22.3765962 31.8617023 22.8316694 32.3437262 22.8966798 32.3958369 22.9096819 39.3916969 22.9096819 39.3916969 22.9096819 39.7434441 22.8706756 40.0430806 22.6236359 40.1473019 22.2855816L40.5120768 20.1532389C40.9941007 17.9428837 41.9060377 17.3187834 43.3130263 17.3187834 45.5798413 17.3187834 45.553786 20.2442535 44.7069873 21.7524959 43.7689949 23.4167634 40.8768516 24.0928721 39.1702265 24.4179243 36.1478065 25.0160204 33.2426356 26.0431855 30.519852 27.4734154 28.174871 28.7086139 26.9632975 31.4000464 26.3640245 33.8444393 25.7517239 36.3408405 25.1394233 39.2793127 26.2337478 41.7367077 27.2238509 43.960065 29.6339703 44.7011841 31.8877576 44.8702113 33.4771337 45.0002322 35.1055927 45.0132343 36.6558857 44.5581611 38.0498467 44.1420943 39.3526139 43.4139772 40.4078554 42.4258184 40.7856579 42.074762 41.1634604 41.6586951 41.4761245 41.2426283 41.5152075 41.1776178 41.6064013 41.1516137 41.6715396 41.1906199 41.697595 41.203622 41.7106226 41.2296262 41.7236503 41.2426283 42.1275082 43.517994 43.9383546 44.7921987 47.9769331 44.7921987 47.9899607 44.7921987 49.4230047 44.7921987 49.4230047 44.7921987ZM43.5344968 28.2275366 42.2708125 34.676573C41.7887887 36.6918969 40.7986856 37.7450662 39.1441712 37.7450662 37.4896568 37.7450662 37.0076329 36.7569074 37.3072694 34.9106106L37.6329612 33.3503599C38.114985 31.3870443 38.4406769 30.7369399 39.3135309 30.0608312 40.1603296 29.4627351 41.1113497 29.0336661 42.1144805 28.7866264 42.570449 28.6566055 43.0003622 28.43557 43.365137 28.1235199 43.4563307 28.0195031 43.5475244 28.0845136 43.5344968 28.2275366ZM66.2156745 9.34850244C70.4757233 9.34850244 72.2214314 8.23032273 72.9379534 4.66775017 73.6544754 1.10517762 72.0650994 0 67.6747738 0 63.2844482 0 61.6820445.975156722 60.9655225 4.66775017 60.2099175 8.08729974 61.5517677 9.34850244 66.2156745 9.34850244Z"/><path fill="#FF3537" fill-rule="nonzero" d="M70.9968302,11.6238681 C70.8665535,11.1557929 70.371502,10.882749 69.9025058,11.0127699 C68.5215725,11.3638263 67.1015562,11.5458556 65.6815399,11.5328535 C64.1442745,11.5848619 62.6200369,11.4028326 61.1348822,11.0127699 C61.1088269,10.9997678 61.0827715,10.9997678 61.0567162,10.9867657 C60.5746923,10.8567448 60.0666131,11.1297887 59.9233087,11.6238681 L53.070753,44.974228 C52.5887291,46.7555143 52.0545945,47.1585791 50.4000801,47.1585791 L48.0420714,47.1065707 C47.6121582,47.1065707 47.2473834,47.4056188 47.1561897,47.8216856 L45.7231457,54.9208266 C45.7101181,54.9728349 45.7101181,55.0378454 45.7101181,55.1028558 C45.7101181,55.5969352 46.1139759,56 46.6090275,56 L50.9602701,56 C58.9332056,56 62.4506771,53.7376364 63.8446381,46.7035059 L71.0098579,12.039935 C71.0359133,11.9099141 71.0359133,11.753889 70.9968302,11.6238681 Z"/></g></svg>