<svg width="161" height="161" viewBox="0 0 161 161" fill="none" xmlns="http://www.w3.org/2000/svg">
<path fill-rule="evenodd" clip-rule="evenodd" d="M0.216797 160.138H160.216V0.138672H0.216797V160.138Z" fill="#E30613"/>
<path fill-rule="evenodd" clip-rule="evenodd" d="M20.7224 86.9941C17.1182 86.9941 15.5122 89.9478 15.5122 93.6167C15.5122 96.8353 16.9287 100.077 20.7224 100.077C23.3225 100.077 24.7522 98.3585 25.0781 95.7525H29.1611C28.6956 100.921 25.1446 103.617 20.7224 103.617C14.8073 103.617 11.2929 99.2261 11.2929 93.6167C11.2929 87.6961 14.9736 83.4245 20.7224 83.4245C25.1313 83.4245 28.5194 86.0934 28.9982 90.3749H24.9152C24.6292 88.4378 22.7706 86.9941 20.7224 86.9941Z" fill="white"/>
<path fill-rule="evenodd" clip-rule="evenodd" d="M39.7467 97.7784C39.7467 100.192 38.4034 100.994 36.6512 100.994C35.4609 100.994 34.3171 100.653 34.3171 99.2122C34.3171 98.232 34.7926 97.4704 36.5781 97.1559C36.8806 97.1029 37.1832 97.0598 37.4891 97.0201C38.2206 96.9506 39.3577 96.7353 39.7467 96.3413V97.7784ZM43.5563 100.073V92.8047C43.5563 89.1755 39.6229 88.8311 37.4617 88.8311C34.5125 88.8311 31.1476 89.8444 30.9348 93.5067H34.7485C34.8982 91.904 35.8657 91.4007 37.2755 91.4007C38.6021 91.4007 39.7459 91.6755 39.7459 93.2914C39.7892 94.2087 39.0843 94.7021 36.8998 94.914C36.3445 94.9637 35.7793 95.0398 35.2074 95.1292C32.9664 95.4835 30.5026 96.1458 30.5026 99.3677C30.5026 102.086 32.3745 103.537 35.234 103.537C36.7036 103.537 38.6587 103.186 39.9088 101.835C39.9221 102.162 40.0518 102.851 40.1748 103.186H44.0451C43.6361 102.53 43.5563 101.09 43.5563 100.073Z" fill="white"/>
<path fill-rule="evenodd" clip-rule="evenodd" d="M46.2724 103.184H50.0861V89.2068H46.2724V103.184ZM46.2724 87.0444H50.0861V83.8821H46.2724V87.0444Z" fill="white"/>
<path fill-rule="evenodd" clip-rule="evenodd" d="M61.0371 99.2077C61.0371 98.8865 60.9174 98.6051 60.678 98.3733C59.3214 97.0653 54.9458 97.3236 53.1404 95.4825C52.6283 94.9626 52.3025 94.2706 52.3025 93.3202C52.3025 90.4228 54.3639 88.8301 58.3472 88.8301C60.9573 88.8301 64.1725 89.6182 64.4751 93.2904H60.8476C60.791 91.8169 59.6207 91.403 58.2408 91.403C57.2865 91.403 56.1162 91.5983 56.1162 92.6977C56.1162 93.6116 57.0837 94.0553 58.8626 94.4295C59.3813 94.5322 59.9099 94.6514 60.4452 94.7772C62.633 95.2739 64.8475 96.0918 64.8475 98.6978C64.8475 101.555 62.8126 103.539 58.5101 103.539C55.0322 103.539 52.1129 102.185 51.9799 98.6415H55.6075C55.6075 100.198 56.9241 100.993 58.5367 100.993C59.5475 100.993 61.0371 100.579 61.0371 99.2077Z" fill="white"/>
<path fill-rule="evenodd" clip-rule="evenodd" d="M48.37 127.205C49.3808 127.205 50.8704 126.791 50.8704 125.42C50.8704 125.092 50.7507 124.814 50.508 124.586C49.1547 123.274 44.7758 123.533 42.9736 121.695C42.4583 121.172 42.1358 120.476 42.1358 119.529C42.1358 116.632 44.1972 115.042 48.1805 115.042C50.7872 115.042 54.0058 115.827 54.3084 119.503H50.6808C50.6243 118.029 49.4539 117.612 48.0741 117.612C47.1198 117.612 45.9461 117.811 45.9461 118.907C45.9461 119.824 46.9137 120.268 48.6959 120.638C49.2146 120.744 49.7399 120.864 50.2785 120.989C52.4663 121.483 54.6807 122.301 54.6807 124.907C54.6807 127.768 52.6459 129.748 48.3434 129.748C44.8655 129.748 41.9462 128.394 41.8132 124.854H45.4407C45.4407 126.407 46.7574 127.205 48.37 127.205Z" fill="white"/>
<path fill-rule="evenodd" clip-rule="evenodd" d="M142.709 127.205C143.72 127.205 145.206 126.791 145.206 125.42C145.206 125.092 145.086 124.814 144.847 124.586C143.49 123.274 139.114 123.533 137.309 121.695C136.797 121.172 136.474 120.476 136.474 119.529C136.474 116.632 138.533 115.042 142.516 115.042C145.126 115.042 148.341 115.827 148.647 119.503H145.016C144.963 118.029 143.789 117.612 142.413 117.612C141.455 117.612 140.285 117.811 140.285 118.907C140.285 119.824 141.252 120.268 143.031 120.638C143.55 120.744 144.079 120.864 144.614 120.989C146.802 121.483 149.016 122.301 149.016 124.907C149.016 127.768 146.985 129.748 142.679 129.748C139.198 129.748 136.282 128.394 136.152 124.854H139.779C139.779 126.407 141.093 127.205 142.709 127.205Z" fill="white"/>
<path fill-rule="evenodd" clip-rule="evenodd" d="M72.7813 100.993C73.7921 100.993 75.2783 100.579 75.2783 99.2077C75.2783 98.8865 75.1586 98.6051 74.9192 98.3733C73.566 97.0653 69.187 97.3236 67.3816 95.4825C66.8695 94.9626 66.547 94.2706 66.547 93.3202C66.547 90.4228 68.6052 88.8301 72.5918 88.8301C75.1985 88.8301 78.4137 89.6182 78.7196 93.2904H75.0888C75.0356 91.8169 73.8619 91.403 72.4854 91.403C71.5278 91.403 70.3574 91.5983 70.3574 92.6977C70.3574 93.6116 71.325 94.0553 73.1038 94.4295C73.6225 94.5322 74.1512 94.6514 74.6865 94.7772C76.8743 95.2739 79.0887 96.0918 79.0887 98.6978C79.0887 101.555 77.0572 103.539 72.7514 103.539C69.2735 103.539 66.3575 102.185 66.2245 98.6415H69.852C69.852 100.198 71.1654 100.993 72.7813 100.993Z" fill="white"/>
<path fill-rule="evenodd" clip-rule="evenodd" d="M87.4652 91.7216C85.4569 91.7216 84.4029 93.0462 84.2965 94.6952H90.5008C90.1384 92.725 89.3105 91.7216 87.4652 91.7216ZM87.7065 100.669C89.2393 100.669 90.4628 99.7251 90.7155 98.8576H94.0737C92.8867 102.566 90.2866 103.533 87.5701 103.533C82.9618 103.533 80.4747 100.311 80.4747 96.2085C80.4747 91.9634 83.414 88.8309 87.5701 88.8309C92.5842 88.8309 94.5758 93.2018 94.3164 97.1324H84.2951C84.4048 99.6887 85.6317 100.669 87.7065 100.669Z" fill="white"/>
<path fill-rule="evenodd" clip-rule="evenodd" d="M33.7485 117.934C31.7402 117.934 30.6862 119.255 30.5798 120.904H36.7842C36.4217 118.934 35.5938 117.934 33.7485 117.934ZM33.9917 126.881C35.5244 126.881 36.748 125.937 37.004 125.07H40.3589C39.1719 128.775 36.5718 129.742 33.8553 129.742C29.247 129.742 26.7599 126.52 26.7599 122.417C26.7599 118.176 29.7025 115.04 33.8553 115.04C38.8693 115.04 40.861 119.414 40.6016 123.341H30.5803C30.69 125.901 31.9169 126.881 33.9917 126.881Z" fill="white"/>
<path fill-rule="evenodd" clip-rule="evenodd" d="M18.3034 117.934C15.9494 117.934 14.9452 119.894 14.9452 122.394C14.9452 124.507 15.8795 126.881 18.3034 126.881C20.8204 126.881 21.5818 124.659 21.5818 122.368C21.5818 120.106 20.7772 117.934 18.3034 117.934ZM21.5821 127.609C20.6843 129.129 19.1848 129.742 17.366 129.742C13.1101 129.742 11.1318 126.146 11.1318 122.281C11.1318 118.212 13.4559 115.04 17.2796 115.04C18.9088 115.04 20.5247 115.738 21.3959 117.122H21.4491V110.096H25.2661V129.394H21.6386V127.609H21.5821Z" fill="white"/>
<path fill-rule="evenodd" clip-rule="evenodd" d="M70.0799 125.828C72.9527 125.828 74.8579 123.851 74.8579 120.043C74.8579 116.5 73.7407 113.665 69.3252 113.665H66.3194V125.828H70.0799ZM70.3754 110.095C75.2298 110.095 79.0801 113.132 79.0801 119.639C79.0801 125.414 76.0577 129.394 70.3754 129.394H62.1029V110.095H70.3754Z" fill="white"/>
<path fill-rule="evenodd" clip-rule="evenodd" d="M87.4785 117.934C85.4702 117.934 84.4162 119.255 84.3098 120.904H90.5141C90.1517 118.934 89.3238 117.934 87.4785 117.934ZM87.7202 126.881C89.253 126.881 90.4733 125.937 90.7293 125.07H94.0875C92.8972 128.775 90.3004 129.742 87.5839 129.742C82.9756 129.742 80.4885 126.52 80.4885 122.417C80.4885 118.176 83.4277 115.04 87.5839 115.04C92.5979 115.04 94.5896 119.414 94.3302 123.341H84.3088C84.4186 125.901 85.6455 126.881 87.7202 126.881Z" fill="white"/>
<path fill-rule="evenodd" clip-rule="evenodd" d="M88.2561 108.175L85.4099 112.959H88.0666L92.4488 108.175H88.2561Z" fill="white"/>
<path fill-rule="evenodd" clip-rule="evenodd" d="M106.202 122.448C106.202 119.895 105.095 117.935 102.87 117.935C100.729 117.935 99.5652 119.627 99.5652 122.448C99.5652 124.879 100.529 126.882 102.897 126.882C105.244 126.882 106.202 124.952 106.202 122.448ZM99.5094 115.418V117.207H99.5659C100.517 115.657 102.03 115.041 103.702 115.041C108.221 115.041 110.013 118.852 110.013 122.558C110.013 126.362 107.955 129.746 103.918 129.746C102.116 129.746 100.646 128.982 99.7554 127.667H99.6989V134.286H95.8818V115.418H99.5094Z" fill="white"/>
<path fill-rule="evenodd" clip-rule="evenodd" d="M118.672 126.882C121.239 126.882 122.06 124.733 122.06 122.418C122.06 120.292 121.362 117.935 118.672 117.935C116.295 117.935 115.314 119.885 115.314 122.418C115.314 124.882 116.238 126.882 118.672 126.882ZM120.448 109.848L123.404 113.693H120.262L118.596 111.498L116.874 113.693H114.001L116.95 109.848H120.448ZM118.672 115.041C123.104 115.041 125.874 118.008 125.874 122.418C125.874 126.64 123.287 129.746 118.672 129.746C114.589 129.746 111.5 127.147 111.5 122.418C111.5 117.912 114.38 115.041 118.672 115.041Z" fill="white"/>
<path fill-rule="evenodd" clip-rule="evenodd" d="M135.267 115.418V117.987H132.47V124.905C132.47 126.196 132.803 126.527 134.086 126.527C134.492 126.527 134.921 126.494 135.267 126.418V129.395C134.595 129.504 133.654 129.531 133.035 129.531C130.489 129.531 128.657 128.935 128.657 126.236V117.987H126.339V115.418H128.657V111.229H132.47V115.418H135.267Z" fill="white"/>
<path fill-rule="evenodd" clip-rule="evenodd" d="M11.6653 143.739V143.713C11.6653 140.852 13.8398 138.428 16.8987 138.428C18.661 138.428 19.7549 138.924 20.7989 139.812L19.6651 141.173C18.8837 140.497 18.1123 140.08 16.8256 140.08C14.9537 140.08 13.5339 141.729 13.5339 143.679V143.713C13.5339 145.812 14.9138 147.358 16.9852 147.358C17.9428 147.358 18.8073 147.05 19.4357 146.58V144.673H16.8422V143.113H21.1547V147.398C20.1605 148.262 18.7241 148.991 16.9287 148.991C13.7534 148.991 11.6653 146.713 11.6653 143.739Z" fill="white"/>
<path fill-rule="evenodd" clip-rule="evenodd" d="M30.4369 143.664C31.7137 143.664 32.5249 142.992 32.5249 141.959V141.933C32.5249 140.837 31.7436 140.237 30.4236 140.237H27.8301V143.664H30.4369ZM26.0491 138.608H30.571C31.8445 138.608 32.8453 138.982 33.497 139.625C34.0356 140.178 34.3382 140.939 34.3382 141.827V141.856C34.3382 143.532 33.3374 144.545 31.9176 144.952L34.6607 148.817H32.556L30.0623 145.254H27.8313V148.817H26.0491V138.608Z" fill="white"/>
<path fill-rule="evenodd" clip-rule="evenodd" d="M46.6592 143.739V143.713C46.6592 141.729 45.2195 140.08 43.2112 140.08C41.1896 140.08 39.7898 141.699 39.7898 143.679V143.713C39.7898 145.696 41.2229 147.342 43.2411 147.342C45.2527 147.342 46.6592 145.726 46.6592 143.739ZM37.9159 143.739V143.713C37.9159 140.838 40.1204 138.428 43.2391 138.428C46.3546 138.428 48.5258 140.809 48.5258 143.679V143.713C48.5258 146.58 46.3214 148.991 43.2092 148.991C40.0871 148.991 37.9159 146.613 37.9159 143.739Z" fill="white"/>
<path fill-rule="evenodd" clip-rule="evenodd" d="M52.3734 144.483V138.609H54.1556V144.413C54.1556 146.311 55.1264 147.327 56.7224 147.327C58.3018 147.327 59.2726 146.364 59.2726 144.483V138.609H61.0548V144.4C61.0548 147.447 59.3458 148.976 56.6925 148.976C54.0558 148.976 52.3734 147.447 52.3734 144.483Z" fill="white"/>
<path fill-rule="evenodd" clip-rule="evenodd" d="M69.2465 143.913C70.5931 143.913 71.4343 143.155 71.4343 142.089V142.059C71.4343 140.864 70.5732 140.241 69.2465 140.241H67.1718V143.913H69.2465ZM65.3906 138.602H69.3905C71.7546 138.602 73.2475 139.963 73.2475 142.019V142.049C73.2475 144.337 71.4188 145.533 69.1844 145.533H67.1728V148.814H65.3906V138.602Z" fill="white"/>
<path fill-rule="evenodd" clip-rule="evenodd" d="M76.7296 138.604H84.254V140.206H78.5118V142.862H83.5956V144.468H78.5118V147.213H84.3238V148.812H76.7296V138.604Z" fill="white"/>
<path fill-rule="evenodd" clip-rule="evenodd" d="M117.879 52.7353C118.395 53.3946 118.934 54.0116 119.503 54.567C120.134 54.2942 120.995 54.1805 122.146 54.3819C120.683 53.3102 119.345 51.9364 118.185 50.2736C117.55 49.3708 116.991 48.4062 116.501 47.3897C115.591 45.3957 114.549 43.8823 113.451 42.8625C111.741 41.2744 109.581 40.5762 107.257 42.3429C108.128 43.1678 110.144 44.0966 111.679 42.5248C112.731 43.1288 113.743 44.3402 114.342 46.1231C114.529 46.6817 114.746 47.2371 114.973 47.7729C113.53 46.9058 111.955 47.0487 110.995 48.2731C111.646 48.6498 113.017 48.9324 113.697 47.7665C113.865 47.7957 114.223 47.9548 114.305 48.0003C115.551 48.6563 115.9 49.8255 116.62 50.9264C116.094 51.0011 115.591 51.2317 115.157 51.6539C116.261 51.3356 117.087 51.7058 117.879 52.7353Z" fill="white"/>
<path fill-rule="evenodd" clip-rule="evenodd" d="M114.385 25.7202C114.74 26.9089 114.454 27.9091 114.273 28.3606C113.892 29.3056 112.948 30.2864 112.061 30.8905C110.634 29.5362 108.839 30.5917 107.879 31.488C109.562 32.7189 111.936 32.1278 113.649 30.5267C113.451 31.3549 113.287 32.2025 113.165 33.0599C112.672 32.7838 112.097 32.6864 111.456 32.852C112.416 33.0696 113.037 33.7386 112.968 34.7714C112.958 34.8948 112.919 35.4891 112.912 35.6353C112.429 35.1481 111.656 34.5895 110.68 34.307C109.743 33.9822 108.481 34.0472 107.386 34.5863C108.126 35.9925 110.345 36.1451 111.666 35.304C112.228 35.7684 112.879 36.5673 112.879 37.7722C112.879 39.1752 112.245 40.1657 110.667 40.4775C111.64 40.7178 112.426 40.5294 113.017 40.052C113.083 40.6691 113.169 41.2829 113.271 41.8869C113.908 42.3806 114.543 43.0399 115.141 43.8647C114.441 41.4875 114.066 38.9413 114.066 36.327C114.066 33.4431 114.566 31.1763 114.95 29.4777C115.246 28.1722 115.309 27.0485 115.148 26.1067C114.779 23.8399 113.228 22.8818 111.229 22.6512C111.357 23.9633 112.228 26.006 114.385 25.7202Z" fill="white"/>
<path fill-rule="evenodd" clip-rule="evenodd" d="M115.601 25.1684C115.755 25.6263 115.841 26.1395 115.864 26.7078C116.117 26.0713 116.393 25.4575 116.695 24.8631C119.099 20.3652 118.096 17.9684 115.272 16.5752C114.739 17.8353 114.598 20.31 117.074 21.1511C116.978 22.028 116.656 23.1776 115.903 24.5774C115.798 24.7722 115.699 24.9671 115.601 25.1684Z" fill="white"/>
<path fill-rule="evenodd" clip-rule="evenodd" d="M115.091 22.5425C115.219 21.5877 114.598 20.3504 113.211 20.2984C112.895 21.5065 113.927 22.5653 115.091 22.5425Z" fill="white"/>
<path fill-rule="evenodd" clip-rule="evenodd" d="M129.925 64.2986L127.391 62.8437C127.391 62.8437 127.69 63.4867 127.69 64.2986C127.69 65.1138 127.391 65.76 127.391 65.76L129.925 64.2986Z" fill="white"/>
<path fill-rule="evenodd" clip-rule="evenodd" d="M130.132 64.5016L128.656 67.0055C128.656 67.0055 129.307 66.7132 130.132 66.7132C130.957 66.7132 131.611 67.0055 131.611 67.0055L130.132 64.5016Z" fill="white"/>
<path fill-rule="evenodd" clip-rule="evenodd" d="M130.336 64.2986L132.871 65.76C132.871 65.76 132.572 65.1138 132.572 64.2986C132.572 63.4867 132.871 62.8437 132.871 62.8437L130.336 64.2986Z" fill="white"/>
<path fill-rule="evenodd" clip-rule="evenodd" d="M128.655 61.5968L130.131 64.1007L131.607 61.5968C131.607 61.5968 130.956 61.8923 130.131 61.8923C129.306 61.8923 128.655 61.5968 128.655 61.5968Z" fill="white"/>
<path fill-rule="evenodd" clip-rule="evenodd" d="M118.513 54.6539C118.046 54.3194 117.603 54.0888 117.149 54.0011C117.06 52.8709 115.798 52.3643 113.72 52.6241C113.944 53.4068 114.66 53.9946 115.587 54.3064C114.881 54.7318 114.134 55.5892 113.316 57.0214C115.275 57.528 117.382 56.4985 118.513 54.6539Z" fill="white"/>
<path fill-rule="evenodd" clip-rule="evenodd" d="M114.477 49.9096C112.935 49.5816 111.371 50.1304 110.7 51.3321C112.406 52.0011 114.319 51.3158 114.477 49.9096Z" fill="white"/>
<path fill-rule="evenodd" clip-rule="evenodd" d="M112.109 45.9196C112.474 44.8674 111.606 44.2406 109.864 44.2471C109.913 44.5719 110.074 44.8609 110.317 45.111C109.699 45.2344 108.96 45.7053 108.016 46.6503C109.285 47.3453 110.952 47.0043 112.109 45.9196Z" fill="white"/>
<path fill-rule="evenodd" clip-rule="evenodd" d="M111.848 26.8812C111.684 26.5661 111.5 26.3226 111.27 26.1504C111.559 25.4814 110.997 24.8644 109.744 24.4649C109.639 24.9716 109.866 25.4944 110.303 25.9134C109.774 25.9686 109.097 26.2576 108.209 26.8584C109.162 27.6606 110.658 27.6281 111.848 26.8812Z" fill="white"/>
<path fill-rule="evenodd" clip-rule="evenodd" d="M122.733 61.3681C121.875 60.527 120.465 60.7803 119.896 61.6799C120.63 62.2482 121.981 62.3911 122.733 61.3681Z" fill="white"/>
<path fill-rule="evenodd" clip-rule="evenodd" d="M112.614 28.619C111.845 27.8104 110.52 28.002 109.965 28.8171C110.629 29.3692 111.888 29.5478 112.614 28.619Z" fill="white"/>
<path fill-rule="evenodd" clip-rule="evenodd" d="M109.147 39.4848C109.9 39.8648 111.123 39.7576 111.57 38.7379C110.656 38.1436 109.469 38.6047 109.147 39.4848Z" fill="white"/>
<path fill-rule="evenodd" clip-rule="evenodd" d="M111.103 54.6002C111.81 55.2075 113.144 55.4089 113.933 54.4249C113.121 53.5545 111.711 53.7396 111.103 54.6002Z" fill="white"/>
<path fill-rule="evenodd" clip-rule="evenodd" d="M119.078 58.0541C118.029 57.4533 116.74 58.0412 116.438 59.0349C117.302 59.4084 118.64 59.2168 119.078 58.0541Z" fill="white"/>
<path fill-rule="evenodd" clip-rule="evenodd" d="M111.251 49.4624C110.574 48.7415 109.404 48.9168 108.904 49.6346C109.492 50.1315 110.607 50.2841 111.251 49.4624Z" fill="white"/>
<path fill-rule="evenodd" clip-rule="evenodd" d="M110.362 37.4137C109.37 36.1959 107.502 36.316 106.638 37.391C107.509 38.2451 109.248 38.6316 110.362 37.4137Z" fill="white"/>
<path fill-rule="evenodd" clip-rule="evenodd" d="M132.205 59.1894C132.35 58.9296 132.268 58.6535 132.041 58.4652C131.863 58.3158 131.492 57.9585 130.664 57.2798C130.525 57.1629 130.335 57.0427 130.131 57.0427C129.93 57.0427 129.74 57.1629 129.602 57.2798C128.773 57.9585 128.402 58.3158 128.221 58.4652C127.997 58.6535 127.909 58.9296 128.057 59.1894C128.201 59.4459 128.51 59.5271 128.744 59.3712C128.471 59.7902 128.665 60.1572 128.882 60.2903C129.125 60.4397 129.434 60.3455 129.585 60.0857C129.513 60.5631 129.835 60.8424 130.131 60.8424C130.427 60.8424 130.756 60.5631 130.68 60.0857C130.828 60.3455 131.137 60.4397 131.383 60.2903C131.594 60.1572 131.791 59.7902 131.518 59.3712C131.755 59.5271 132.061 59.4459 132.205 59.1894Z" fill="white"/>
<path fill-rule="evenodd" clip-rule="evenodd" d="M124.847 55.948C123.407 55.318 120.905 54.4801 119.311 55.4057C118.712 55.7532 118.203 56.3605 118.065 57.0457C119.143 55.8733 121.852 55.4804 122.618 57.64C122.831 58.2441 122.845 59.1794 122.187 59.5334C122.444 57.9908 121.424 57.0457 120.07 57.01C119.896 57.7212 120.077 58.5007 120.527 59.017C120.087 58.9716 119.669 59.0625 119.337 59.1989C119.337 59.1989 119.889 60.0758 120.958 60.157C121.74 60.2187 122.447 59.9361 122.937 59.397C123.052 60.3648 123.239 61.2287 124.304 61.5437C123.239 62.0406 122.345 62.8785 122.112 63.9794C126.55 63.7553 126.125 62.1055 125.715 61.0858C123.101 61.7548 123.604 59.2639 123.617 57.5751C123.844 57.692 124.594 58.033 125.327 58.309C125.159 58.7312 124.903 59.0852 124.551 59.397C125.866 59.2898 126.408 58.9099 128.676 56.9743C127.352 56.8281 126.07 56.4774 124.847 55.948Z" fill="white"/>
<path fill-rule="evenodd" clip-rule="evenodd" d="M146.813 42.8621C145.719 43.8819 144.676 45.3953 143.763 47.3958C143.269 48.4058 142.711 49.3704 142.083 50.2732C140.919 51.936 139.584 53.3098 138.118 54.3815C139.272 54.1801 140.133 54.297 140.761 54.5666C141.33 54.0112 141.872 53.3942 142.382 52.7349C143.184 51.7054 144.006 51.3352 145.107 51.6567C144.676 51.2313 144.17 51.0007 143.644 50.926C144.364 49.8251 144.716 48.6559 145.959 47.9999C146.044 47.9544 146.399 47.8018 146.573 47.7628C147.254 48.932 148.618 48.6494 149.272 48.2759C148.312 47.0483 146.738 46.9054 145.291 47.7725C145.515 47.2367 145.732 46.6813 145.922 46.1228C146.524 44.3398 147.54 43.1317 148.585 42.5244C150.117 44.0962 152.139 43.1674 153.013 42.3425C150.689 40.5758 148.526 41.274 146.813 42.8621Z" fill="white"/>
<path fill-rule="evenodd" clip-rule="evenodd" d="M145.111 26.1073C144.953 27.0491 145.019 28.1728 145.315 29.4783C145.702 31.1769 146.196 33.4437 146.196 36.3243C146.196 38.9419 145.824 41.4881 145.121 43.8653C145.722 43.0404 146.35 42.3812 146.994 41.881C147.096 41.2802 147.185 40.6664 147.241 40.0494C147.836 40.5268 148.622 40.7184 149.598 40.4781C148.02 40.1663 147.382 39.1725 147.382 37.7728C147.382 36.5679 148.04 35.769 148.602 35.3046C149.914 36.1457 152.139 35.9898 152.876 34.5869C151.784 34.0478 150.522 33.9828 149.578 34.3043C148.602 34.5901 147.833 35.152 147.353 35.6359C147.346 35.4897 147.3 34.8954 147.294 34.7687C147.228 33.7392 147.843 33.0702 148.803 32.8526C148.168 32.6838 147.589 32.7844 147.096 33.0605C146.971 32.1999 146.814 31.3587 146.613 30.5273C148.329 32.1284 150.703 32.7195 152.386 31.4919C151.429 30.5923 149.624 29.5368 148.198 30.8911C147.31 30.287 146.373 29.303 145.995 28.3612C145.811 27.9097 145.518 26.9095 145.873 25.7208C148.037 26.0066 148.908 23.9639 149.033 22.6518C147.034 22.8824 145.486 23.8405 145.111 26.1073Z" fill="white"/>
<path fill-rule="evenodd" clip-rule="evenodd" d="M143.57 24.8609C143.873 25.4617 144.149 26.0723 144.399 26.7056C144.422 26.1405 144.51 25.6241 144.665 25.1662C144.566 24.9713 144.461 24.7765 144.359 24.5784C143.606 23.1754 143.284 22.0257 143.192 21.1489C145.664 20.311 145.523 17.833 144.994 16.5762C142.167 17.9662 141.161 20.3629 143.57 24.8609Z" fill="white"/>
<path fill-rule="evenodd" clip-rule="evenodd" d="M145.175 22.5425C146.339 22.5653 147.368 21.5065 147.052 20.2984C145.668 20.3504 145.044 21.5877 145.175 22.5425Z" fill="white"/>
<path fill-rule="evenodd" clip-rule="evenodd" d="M146.543 52.6273C144.465 52.3675 143.203 52.8741 143.117 54.001C142.66 54.092 142.213 54.3193 141.75 54.6571C142.884 56.4952 144.988 57.5247 146.947 57.0213C146.129 55.5891 145.382 54.7285 144.675 54.3031C145.603 53.9945 146.319 53.41 146.543 52.6273Z" fill="white"/>
<path fill-rule="evenodd" clip-rule="evenodd" d="M145.79 49.9096C145.944 51.3158 147.857 52.0011 149.56 51.3321C148.896 50.1304 147.328 49.5816 145.79 49.9096Z" fill="white"/>
<path fill-rule="evenodd" clip-rule="evenodd" d="M149.948 45.111C150.188 44.8609 150.349 44.5719 150.398 44.2471C148.656 44.2406 147.791 44.8674 148.153 45.9196C149.307 47.0043 150.973 47.3453 152.246 46.6503C151.305 45.7053 150.562 45.2344 149.948 45.111Z" fill="white"/>
<path fill-rule="evenodd" clip-rule="evenodd" d="M150.517 24.4643C149.265 24.8638 148.706 25.4841 148.995 26.1563C148.765 26.322 148.578 26.5688 148.417 26.8805C149.607 27.634 151.102 27.66 152.056 26.8546C151.165 26.2602 150.491 25.968 149.962 25.9128C150.396 25.4906 150.622 24.9709 150.517 24.4643Z" fill="white"/>
<path fill-rule="evenodd" clip-rule="evenodd" d="M140.37 61.6791C139.798 60.786 138.384 60.5295 137.529 61.3673C138.275 62.3936 139.627 62.2539 140.37 61.6791Z" fill="white"/>
<path fill-rule="evenodd" clip-rule="evenodd" d="M147.649 28.619C148.372 29.5478 149.632 29.3692 150.299 28.8171C149.74 28.002 148.415 27.8104 147.649 28.619Z" fill="white"/>
<path fill-rule="evenodd" clip-rule="evenodd" d="M151.116 39.4848C150.791 38.6047 149.604 38.1436 148.69 38.7379C149.141 39.7576 150.36 39.8648 151.116 39.4848Z" fill="white"/>
<path fill-rule="evenodd" clip-rule="evenodd" d="M149.158 54.6002C148.547 53.7396 147.14 53.5545 146.331 54.4249C147.117 55.4089 148.455 55.2075 149.158 54.6002Z" fill="white"/>
<path fill-rule="evenodd" clip-rule="evenodd" d="M141.185 58.0541C141.622 59.2168 142.963 59.4084 143.828 59.0349C143.522 58.0412 142.237 57.4533 141.185 58.0541Z" fill="white"/>
<path fill-rule="evenodd" clip-rule="evenodd" d="M151.361 49.6336C150.865 48.9126 149.691 48.747 149.011 49.4614C149.652 50.2831 150.766 50.1272 151.361 49.6336Z" fill="white"/>
<path fill-rule="evenodd" clip-rule="evenodd" d="M149.905 37.4137C151.02 38.6316 152.752 38.2451 153.63 37.391C152.762 36.316 150.895 36.1959 149.905 37.4137Z" fill="white"/>
<path fill-rule="evenodd" clip-rule="evenodd" d="M142.197 57.0452C142.065 56.36 141.556 55.7591 140.954 55.4052C139.36 54.4796 136.858 55.3142 135.415 55.9475C134.192 56.4769 132.913 56.8309 131.582 56.977C133.857 58.9093 134.402 59.2893 135.711 59.3997C135.362 59.0847 135.106 58.734 134.938 58.3085C135.671 58.0325 136.418 57.6915 136.648 57.5778C136.654 59.2666 137.167 61.7543 134.55 61.0853C134.139 62.105 133.715 63.7548 138.157 63.9789C137.917 62.878 137.029 62.0433 135.961 61.5432C137.029 61.2314 137.206 60.3643 137.328 59.3965C137.818 59.9356 138.525 60.2214 139.307 60.1564C140.372 60.0785 140.925 59.1984 140.925 59.1984C140.596 59.0652 140.178 58.9678 139.738 59.0165C140.188 58.5001 140.366 57.7207 140.195 57.0095C138.84 57.0452 137.825 57.9903 138.074 59.5394C137.42 59.1789 137.433 58.2436 137.647 57.6428C138.413 55.4863 141.125 55.8728 142.197 57.0452Z" fill="white"/>
<path fill-rule="evenodd" clip-rule="evenodd" d="M130.13 54.2228C122.957 54.2228 117.119 46.1947 117.119 36.3349C117.119 26.4588 122.957 18.4275 130.13 18.4275C137.303 18.4275 143.142 26.4588 143.142 36.3349C143.142 46.1947 137.303 54.2228 130.13 54.2228ZM144.516 36.3348C144.516 25.7313 138.076 17.1153 130.131 17.1153C122.188 17.1153 115.745 25.7313 115.745 36.3348C115.745 46.9318 122.188 55.5251 130.131 55.5251C138.076 55.5251 144.516 46.9318 144.516 36.3348Z" fill="white"/>
<path fill-rule="evenodd" clip-rule="evenodd" d="M130.132 19.6563C128.919 19.6563 127.732 19.9291 126.598 20.4455H133.666C132.529 19.9291 131.345 19.6563 130.132 19.6563Z" fill="white"/>
<path fill-rule="evenodd" clip-rule="evenodd" d="M135.547 21.5722H124.719C124.393 21.8157 124.084 22.0756 123.775 22.3613H136.487C136.178 22.0756 135.869 21.8157 135.547 21.5722Z" fill="white"/>
<path fill-rule="evenodd" clip-rule="evenodd" d="M137.553 23.4844H122.704C122.494 23.7377 122.28 24.0008 122.083 24.2768H138.178C137.978 24.0008 137.764 23.7377 137.553 23.4844Z" fill="white"/>
<path fill-rule="evenodd" clip-rule="evenodd" d="M118.429 36.8841C118.436 37.1504 118.445 37.4135 118.459 37.6765H141.802C141.819 37.4135 141.829 37.1504 141.835 36.8841H118.429Z" fill="white"/>
<path fill-rule="evenodd" clip-rule="evenodd" d="M124.709 51.0764H135.554C135.873 50.8328 136.188 50.5698 136.497 50.284H123.769C124.074 50.5698 124.383 50.8328 124.709 51.0764Z" fill="white"/>
<path fill-rule="evenodd" clip-rule="evenodd" d="M130.132 52.989C131.349 52.989 132.539 52.7162 133.673 52.1999H126.598C127.732 52.7162 128.919 52.989 130.132 52.989Z" fill="white"/>
<path fill-rule="evenodd" clip-rule="evenodd" d="M123.477 25.4H121.327C121.166 25.6598 121.012 25.9229 120.864 26.1924H122.899C123.07 25.9131 123.264 25.6468 123.477 25.4Z" fill="white"/>
<path fill-rule="evenodd" clip-rule="evenodd" d="M137.365 26.1897H139.4C139.255 25.9201 139.097 25.6571 138.939 25.3972H136.786C137.006 25.6441 137.197 25.9104 137.365 26.1897Z" fill="white"/>
<path fill-rule="evenodd" clip-rule="evenodd" d="M122.366 27.3123H120.302C120.183 27.5721 120.071 27.8351 119.963 28.1047H122.146C122.195 27.8481 122.271 27.5818 122.366 27.3123Z" fill="white"/>
<path fill-rule="evenodd" clip-rule="evenodd" d="M138.118 28.1051H140.301C140.195 27.8355 140.08 27.5725 139.962 27.3127H137.901C137.996 27.5855 138.062 27.8485 138.118 28.1051Z" fill="white"/>
<path fill-rule="evenodd" clip-rule="evenodd" d="M122.13 29.6146C122.1 29.4815 122.077 29.3548 122.061 29.2281H119.543C119.457 29.488 119.375 29.751 119.296 30.0173H120.795C121.186 29.777 121.643 29.6309 122.13 29.6146Z" fill="white"/>
<path fill-rule="evenodd" clip-rule="evenodd" d="M138.134 29.6146C138.614 29.6309 139.074 29.777 139.468 30.0173H140.964C140.889 29.751 140.803 29.488 140.718 29.2281H138.196C138.183 29.3548 138.163 29.4815 138.134 29.6146Z" fill="white"/>
<path fill-rule="evenodd" clip-rule="evenodd" d="M119.758 31.1436H119.005C118.943 31.4066 118.887 31.6697 118.838 31.9328H119.495C119.548 31.6535 119.633 31.3872 119.758 31.1436Z" fill="white"/>
<path fill-rule="evenodd" clip-rule="evenodd" d="M140.768 31.9334H141.425C141.376 31.667 141.32 31.404 141.254 31.1442H140.505C140.63 31.3877 140.718 31.6541 140.768 31.9334Z" fill="white"/>
<path fill-rule="evenodd" clip-rule="evenodd" d="M119.724 33.6303C119.638 33.4387 119.569 33.2471 119.52 33.0554H118.649C118.609 33.3185 118.576 33.5816 118.55 33.8446H119.862C119.806 33.7829 119.76 33.7082 119.724 33.6303Z" fill="white"/>
<path fill-rule="evenodd" clip-rule="evenodd" d="M140.539 33.6303C140.503 33.7082 140.457 33.7829 140.401 33.8446H141.71C141.687 33.5816 141.654 33.3185 141.617 33.0554H140.74C140.694 33.2471 140.628 33.4387 140.539 33.6303Z" fill="white"/>
<path fill-rule="evenodd" clip-rule="evenodd" d="M134.477 25.4H125.779C125.999 25.6468 126.19 25.9131 126.36 26.1924H133.898C134.069 25.9131 134.263 25.6468 134.477 25.4Z" fill="white"/>
<path fill-rule="evenodd" clip-rule="evenodd" d="M133.367 27.3123H126.894C126.996 27.5818 127.065 27.8481 127.118 28.1047H133.147C133.2 27.8481 133.272 27.5818 133.367 27.3123Z" fill="white"/>
<path fill-rule="evenodd" clip-rule="evenodd" d="M133.134 29.6146C133.105 29.4815 133.082 29.3548 133.065 29.2281H127.19C127.177 29.3548 127.161 29.4815 127.131 29.6146C127.615 29.6309 128.075 29.777 128.466 30.0173H131.799C132.191 29.777 132.648 29.6309 133.134 29.6146Z" fill="white"/>
<path fill-rule="evenodd" clip-rule="evenodd" d="M130.498 31.9334C130.551 31.6541 130.64 31.3877 130.765 31.1442H129.502C129.624 31.3877 129.719 31.6541 129.765 31.9334H130.498Z" fill="white"/>
<path fill-rule="evenodd" clip-rule="evenodd" d="M130.866 33.8458C130.738 33.6997 130.61 33.4074 130.525 33.0566H129.736C129.653 33.4074 129.525 33.6997 129.4 33.8458H130.866Z" fill="white"/>
<path fill-rule="evenodd" clip-rule="evenodd" d="M128.982 38.7995H118.548C118.575 39.0658 118.611 39.3289 118.64 39.5919H128.404C128.575 39.3126 128.769 39.0463 128.982 38.7995Z" fill="white"/>
<path fill-rule="evenodd" clip-rule="evenodd" d="M131.861 39.5892H141.618C141.654 39.3261 141.687 39.0631 141.717 38.7967H131.279C131.499 39.0436 131.69 39.3099 131.861 39.5892Z" fill="white"/>
<path fill-rule="evenodd" clip-rule="evenodd" d="M127.868 40.7152H118.834C118.887 40.9815 118.939 41.2446 119.002 41.5044H127.647C127.697 41.2478 127.772 40.9847 127.868 40.7152Z" fill="white"/>
<path fill-rule="evenodd" clip-rule="evenodd" d="M132.615 41.5052H141.261C141.317 41.2421 141.376 40.979 141.429 40.716H132.395C132.494 40.9855 132.559 41.2486 132.615 41.5052Z" fill="white"/>
<path fill-rule="evenodd" clip-rule="evenodd" d="M127.631 43.021C127.601 42.8879 127.582 42.7547 127.562 42.628H119.294C119.37 42.8944 119.455 43.1574 119.541 43.4172H126.306C126.697 43.1801 127.151 43.034 127.631 43.021Z" fill="white"/>
<path fill-rule="evenodd" clip-rule="evenodd" d="M132.632 43.021C133.112 43.034 133.566 43.1801 133.957 43.4172H140.722C140.808 43.1574 140.893 42.8944 140.969 42.628H132.698C132.685 42.7547 132.662 42.8879 132.632 43.021Z" fill="white"/>
<path fill-rule="evenodd" clip-rule="evenodd" d="M125.264 44.5433H119.959C120.064 44.8128 120.179 45.0759 120.297 45.3325H124.998C125.051 45.0532 125.14 44.7869 125.264 44.5433Z" fill="white"/>
<path fill-rule="evenodd" clip-rule="evenodd" d="M135.263 45.3331H139.964C140.083 45.0732 140.198 44.8102 140.306 44.5439H135C135.125 44.7874 135.214 45.0538 135.263 45.3331Z" fill="white"/>
<path fill-rule="evenodd" clip-rule="evenodd" d="M126.819 47.2485H128.394C128.312 46.94 128.045 46.6022 127.661 46.6022C127.269 46.6022 126.997 46.9107 126.819 47.2485Z" fill="white"/>
<path fill-rule="evenodd" clip-rule="evenodd" d="M131.871 47.2485H133.445C133.268 46.9107 132.995 46.6022 132.607 46.6022C132.212 46.6022 131.946 46.94 131.871 47.2485Z" fill="white"/>
<path fill-rule="evenodd" clip-rule="evenodd" d="M121.315 33.8426H122.89C122.811 33.5341 122.541 33.1964 122.157 33.1964C121.769 33.1964 121.496 33.5049 121.315 33.8426Z" fill="white"/>
<path fill-rule="evenodd" clip-rule="evenodd" d="M127.104 33.1956C126.719 33.1956 126.453 33.5333 126.371 33.8419H127.945C127.765 33.5073 127.495 33.1956 127.104 33.1956Z" fill="white"/>
<path fill-rule="evenodd" clip-rule="evenodd" d="M138.107 33.1956C137.722 33.1956 137.456 33.5333 137.374 33.8419H138.948C138.767 33.5073 138.498 33.1956 138.107 33.1956Z" fill="white"/>
<path fill-rule="evenodd" clip-rule="evenodd" d="M133.159 33.1956C132.771 33.1956 132.498 33.5073 132.317 33.8419H133.895C133.813 33.5333 133.543 33.1956 133.159 33.1956Z" fill="white"/>
<path fill-rule="evenodd" clip-rule="evenodd" d="M125.023 46.4557H120.857C121.002 46.7253 121.16 46.9883 121.318 47.2481H125.361C125.207 47.0857 125.072 46.6571 125.023 46.4557Z" fill="white"/>
<path fill-rule="evenodd" clip-rule="evenodd" d="M134.905 47.2485H138.945C139.1 46.9887 139.254 46.7257 139.406 46.4561H135.24C135.194 46.6542 135.056 47.0894 134.905 47.2485Z" fill="white"/>
<path fill-rule="evenodd" clip-rule="evenodd" d="M124.632 26.4209C125.763 28.1682 125.642 29.451 124.632 31.2697V26.4209ZM127.104 32.2537C127.788 32.2537 128.363 32.6629 128.672 33.241C128.784 32.9942 128.86 32.7246 128.86 32.4388C128.86 31.3996 128.048 30.552 127.038 30.552C126.716 30.552 126.411 30.6494 126.148 30.8118L125.51 31.7276L125.27 31.5522C125.27 31.5522 126.259 29.9317 126.259 28.9282C126.259 27.9149 125.615 26.3788 124.632 25.5896C123.646 26.3788 123.002 27.9149 123.002 28.9282C123.002 29.9317 123.988 31.5522 123.988 31.5522L123.748 31.7276L123.113 30.8118C122.85 30.6494 122.541 30.552 122.219 30.552C121.213 30.552 120.401 31.3996 120.401 32.4388C120.401 32.7246 120.474 32.9942 120.592 33.241C120.894 32.6629 121.473 32.2537 122.157 32.2537C123.192 32.2537 123.873 33.202 123.873 34.0269C123.873 34.3744 123.817 34.6862 123.735 34.9655V34.972C123.633 35.2838 123.505 35.5501 123.38 35.7612H125.881C125.753 35.5501 125.625 35.2838 125.523 34.972V34.9655C125.444 34.6862 125.385 34.3744 125.385 34.0269V34.0237C125.385 33.202 126.069 32.2537 127.104 32.2537Z" fill="white"/>
<path fill-rule="evenodd" clip-rule="evenodd" d="M135.633 26.4209C136.764 28.1682 136.646 29.451 135.633 31.2697V26.4209ZM138.106 32.2537C138.79 32.2537 139.365 32.6629 139.674 33.241C139.789 32.9942 139.862 32.7246 139.862 32.4388C139.862 31.3996 139.05 30.552 138.044 30.552C137.718 30.552 137.413 30.6494 137.15 30.8118L136.512 31.7276L136.275 31.5522C136.275 31.5522 137.265 29.9317 137.265 28.9282C137.265 27.9149 136.62 26.3788 135.634 25.5896C134.648 26.3788 134.004 27.9149 134.004 28.9282C134.004 29.9317 134.99 31.5522 134.99 31.5522L134.75 31.7276L134.119 30.8118C133.856 30.6494 133.547 30.552 133.221 30.552C132.218 30.552 131.406 31.3996 131.406 32.4388C131.406 32.7246 131.479 32.9942 131.594 33.241C131.903 32.6629 132.475 32.2537 133.159 32.2537C134.194 32.2537 134.875 33.202 134.878 34.0237V34.0269C134.878 34.3744 134.819 34.6862 134.74 34.9655L134.737 34.972C134.641 35.2838 134.51 35.5501 134.382 35.7612H136.883C136.755 35.5501 136.627 35.2838 136.528 34.972L136.525 34.9655C136.446 34.6862 136.387 34.3744 136.387 34.0269C136.387 33.202 137.071 32.2537 138.106 32.2537Z" fill="white"/>
<path fill-rule="evenodd" clip-rule="evenodd" d="M130.131 44.6764V39.8277C131.261 41.5749 131.143 42.8545 130.131 44.6764ZM130.132 38.9929C129.146 39.7885 128.501 41.3214 128.501 42.3347C128.501 43.3349 129.491 44.9588 129.491 44.9588L129.251 45.1341L128.616 44.2118C128.353 44.0559 128.048 43.9585 127.719 43.9585C126.716 43.9585 125.904 44.8061 125.904 45.8421C125.904 46.1344 125.977 46.404 126.092 46.6443C126.401 46.0695 126.976 45.6602 127.66 45.6602C128.692 45.6602 129.376 46.6086 129.376 47.4335C129.376 48.1739 129.126 48.7617 128.886 49.1612H131.378C131.138 48.7617 130.885 48.1739 130.885 47.4335C130.885 47.4302 130.888 47.4302 130.888 47.427C130.888 46.6053 131.572 45.6602 132.607 45.6602C133.291 45.6602 133.863 46.0695 134.172 46.6443C134.287 46.404 134.359 46.1344 134.359 45.8421C134.359 44.8061 133.547 43.9585 132.545 43.9585C132.219 43.9585 131.91 44.0559 131.647 44.2118L131.013 45.1341L130.776 44.9588C130.776 44.9588 131.762 43.3349 131.762 42.3347C131.762 41.3214 131.118 39.7885 130.132 38.9929Z" fill="white"/>
<path fill-rule="evenodd" clip-rule="evenodd" d="M128.217 48.3711H122.077C122.28 48.6472 122.491 48.9102 122.704 49.1636H127.843C127.974 48.9525 128.112 48.6894 128.217 48.3711Z" fill="white"/>
<path fill-rule="evenodd" clip-rule="evenodd" d="M132.423 49.1612H137.558C137.772 48.9079 137.979 48.6481 138.186 48.3688H132.048C132.15 48.687 132.288 48.9566 132.423 49.1612Z" fill="white"/>
<path fill-rule="evenodd" clip-rule="evenodd" d="M131.383 4.00169C131.383 3.31969 130.821 2.76435 130.131 2.76435C129.441 2.76435 128.878 3.31969 128.878 4.00169C128.878 4.6837 129.441 5.23904 130.131 5.23904C130.821 5.23904 131.383 4.6837 131.383 4.00169Z" fill="white"/>
<path fill-rule="evenodd" clip-rule="evenodd" d="M131.274 14.8739L131.612 15.3286L132.165 14.416L131.626 13.5359H128.634L128.098 14.416L128.654 15.3286L128.989 14.8739H131.274Z" fill="white"/>
<path fill-rule="evenodd" clip-rule="evenodd" d="M126.375 15.3498L126.858 15.6518L127.016 14.6061L126.171 13.9858L123.4 15.0412L123.252 16.048L124.116 16.6975L124.258 16.1552L126.375 15.3498Z" fill="white"/>
<path fill-rule="evenodd" clip-rule="evenodd" d="M136 16.1552L136.144 16.6975L137.016 16.048L136.864 15.0445L134.087 13.9858L133.248 14.6061L133.403 15.6518L133.886 15.3498L136 16.1552Z" fill="white"/>
<path fill-rule="evenodd" clip-rule="evenodd" d="M122.71 34.9714H118.459C118.443 35.2345 118.433 35.4976 118.427 35.7639H122.335C122.47 35.5528 122.608 35.2897 122.71 34.9714Z" fill="white"/>
<path fill-rule="evenodd" clip-rule="evenodd" d="M137.925 35.7615H141.831C141.828 35.4952 141.818 35.2321 141.805 34.9691H137.551C137.656 35.2873 137.794 35.5569 137.925 35.7615Z" fill="white"/>
<path fill-rule="evenodd" clip-rule="evenodd" d="M133.339 35.7615C133.474 35.5569 133.612 35.2873 133.718 34.9691H126.551C126.656 35.2873 126.791 35.5569 126.926 35.7615H133.339Z" fill="white"/>
<path fill-rule="evenodd" clip-rule="evenodd" d="M138.937 9.5552L135.485 8.13274L134.788 9.51948C134.512 10.0229 134.006 10.0976 133.625 9.95141C133.253 9.80852 132.921 9.41555 133.059 8.88944L133.441 7.28836L130.13 5.9211L126.816 7.28836L127.204 8.88944C127.342 9.41555 127.007 9.80852 126.639 9.95141C126.261 10.0976 125.751 10.0229 125.472 9.51948L124.772 8.13274L121.33 9.5552L121.701 10.9549C121.836 11.4778 121.501 11.8708 121.133 12.0137C120.754 12.163 120.242 12.0851 119.965 11.585L119.282 10.3963L117.132 11.2764C116.718 10.4743 116.04 10.6919 115.767 10.8218L118.963 16.8851C119.824 18.7428 119.453 20.0873 119.407 20.5095C120.409 18.9668 122.704 17.5022 123.089 17.2651L121.303 15.9628C121.29 16.1934 121.336 16.5376 121.396 16.8137L120.682 17.3722L119.693 15.6835C122.641 13.6699 126.103 12.4651 129.601 12.4034C129.446 11.9909 129.226 11.533 128.365 11.6142C125.215 11.8967 122.135 12.9944 119.262 14.93L117.697 12.2442C117.697 12.2442 118.946 11.7636 118.95 11.7636C119.643 12.8775 120.495 13.0042 121.458 12.6177C122.401 12.2475 122.75 11.507 122.533 10.3639L124.456 9.61366C125.271 10.9127 126.08 10.9744 127.001 10.6107C127.941 10.2372 128.246 9.35385 128.036 8.22367C128.036 8.22367 128.578 8.00608 129.154 7.7755C129.466 9.86048 130.13 11.0296 130.13 11.0296C130.13 11.0296 130.791 9.86048 131.103 7.7755C131.685 8.00608 132.231 8.22367 132.231 8.22367C132.02 9.35385 132.323 10.2372 133.256 10.6107C134.183 10.9744 134.992 10.9127 135.807 9.61366L137.731 10.3639C137.507 11.507 137.865 12.2475 138.809 12.6177C139.772 13.0042 140.62 12.8775 141.317 11.7636L142.566 12.2442L141.002 14.93C138.128 12.9944 135.045 11.8967 131.892 11.6142C131.037 11.533 130.814 11.9909 130.656 12.4034C134.164 12.4651 137.622 13.6699 140.564 15.6835L139.581 17.3722L138.868 16.8137C138.93 16.5376 138.976 16.1934 138.96 15.9628L137.178 17.2651C137.563 17.5022 139.851 18.9668 140.86 20.5095C140.808 20.0873 140.443 18.7428 141.304 16.8851L144.489 10.8218C144.22 10.6919 143.539 10.4743 143.125 11.2764L140.975 10.3963L140.295 11.585C140.019 12.0851 139.512 12.163 139.131 12.0137C138.76 11.8708 138.427 11.4778 138.566 10.9549L138.937 9.5552Z" fill="white"/>
<path fill-rule="evenodd" clip-rule="evenodd" d="M88.7171 34.8894C88.7138 35.3084 89.0557 35.6526 89.4732 35.6559C89.8972 35.6591 90.249 35.3214 90.2523 34.9024C90.2588 34.4835 89.9137 34.1457 89.4863 34.1425C89.0622 34.1392 88.7203 34.4705 88.7171 34.8894Z" fill="white"/>
<path fill-rule="evenodd" clip-rule="evenodd" d="M87.613 39.4656L87.5769 39.4688L87.8859 41.6155L87.8892 41.648L88.2245 41.6025L88.2278 41.5765C88.2541 41.3849 88.2672 41.1154 88.2672 40.8166L90.1969 40.547L90.3613 41.6772C90.4007 41.9565 90.5487 42.0312 90.6506 42.0702L90.9267 42.0312L90.6999 40.4788L92.3567 40.2417L92.5704 41.7324C92.3008 41.8331 92.1036 41.9273 91.8735 42.0734L91.857 42.0864L91.8965 42.3527L91.9195 42.3592C92.1102 42.4014 92.5047 42.4501 92.7709 42.4144C92.9254 42.3917 93.0372 42.3657 93.1194 42.317L93.1391 42.3072L92.6329 38.7868L92.6033 38.7901C92.2877 38.8355 92.245 38.9784 92.2252 39.511L88.1686 40.0729C87.9976 39.55 87.9089 39.4233 87.613 39.4656Z" fill="white"/>
<path fill-rule="evenodd" clip-rule="evenodd" d="M89.5241 44.9046C89.8101 44.5149 90.2835 44.2259 90.9048 44.0602C91.5262 43.8946 92.0949 43.9076 92.5387 44.0927C92.5978 44.1155 92.6537 44.1479 92.7063 44.1739C93.0515 44.3688 93.2915 44.687 93.4 45.093C93.5282 45.5542 93.446 46.0023 93.1699 46.3791C92.8871 46.7688 92.417 47.0611 91.799 47.2234C91.181 47.3923 90.6155 47.3793 90.1619 47.191C89.7214 47.0058 89.4189 46.6616 89.294 46.1939C89.1658 45.7295 89.2447 45.2814 89.5241 44.9046ZM89.9474 47.7853C89.9572 47.7918 89.9704 47.7983 89.9803 47.8047C90.5818 48.1295 91.3248 48.2075 92.0579 48.0061C92.8271 47.808 93.3991 47.4053 93.7114 46.8402C94.0172 46.3108 94.0796 45.6711 93.8988 45.0053C93.7147 44.3493 93.3071 43.8167 92.7449 43.4951C92.7384 43.4886 92.7252 43.4854 92.7088 43.4789C92.1138 43.1509 91.3774 43.0827 90.6443 43.2808C89.8718 43.4854 89.303 43.8849 88.9743 44.437C88.6653 44.9663 88.5995 45.5931 88.7738 46.2589C88.9579 46.9181 89.3721 47.4573 89.9474 47.7853Z" fill="white"/>
<path fill-rule="evenodd" clip-rule="evenodd" d="M95.1024 49.8366L95.1156 49.8561L95.4279 49.736L94.6488 47.7387L94.6192 47.7484C94.3365 47.8621 94.3233 48.0212 94.4318 48.5668L90.6118 50.0185C90.3225 49.5411 90.2009 49.4307 89.9182 49.5379L89.8853 49.5508L90.6579 51.5416L90.9734 51.428V51.3988C90.9636 51.2104 90.9209 50.9278 90.8748 50.7167L94.7112 49.2651C94.8197 49.4469 94.9775 49.6872 95.1024 49.8366Z" fill="white"/>
<path fill-rule="evenodd" clip-rule="evenodd" d="M97.048 53.9821C97.1532 54.1249 97.3044 54.3815 97.3833 54.5114C97.5608 54.8102 97.6299 55.083 97.5805 55.3201C97.5312 55.5539 97.3734 55.7585 97.1039 55.9144C96.8968 56.0346 96.5779 56.1515 96.2524 56.0378C95.8875 55.9176 95.5884 55.5539 95.3353 54.9693L97.048 53.9821ZM96.3773 56.7035C96.785 56.8334 97.2057 56.7911 97.5608 56.5865C97.9388 56.3624 98.1624 56.0637 98.2117 55.6902C98.2643 55.333 98.1558 54.9173 97.883 54.4561C97.8238 54.3619 97.6989 54.1606 97.5674 53.9495C97.4161 53.7091 97.2583 53.4591 97.186 53.3292L96.7126 52.5432L96.6896 52.5595C96.4201 52.7121 96.4332 52.8615 96.6173 53.3649L93.0834 55.4076C92.7217 54.992 92.5935 54.9075 92.3273 55.0569L92.3042 55.0731L93.4121 56.9438L93.4252 56.9698L93.7145 56.8041L93.7113 56.7781C93.6817 56.6288 93.5962 56.3982 93.4581 56.0604L94.921 55.2128C95.378 56.2098 95.9664 56.5735 96.3773 56.7035Z" fill="white"/>
<path fill-rule="evenodd" clip-rule="evenodd" d="M97.2053 62.1863C97.8858 62.5662 98.7109 62.4688 99.4637 61.881L101.492 60.3091C101.91 60.6794 102.048 60.7443 102.284 60.5624L102.311 60.5397L101.035 58.9451L100.775 59.1432L100.782 59.166C100.835 59.3511 100.996 59.6206 101.124 59.835L99.1415 61.3841C98.3065 62.0369 97.603 62.0206 97.0573 61.3321C96.4524 60.5787 96.5741 59.9162 97.4321 59.2472L99.4177 57.7013C99.6018 57.8734 99.8319 58.0845 99.9963 58.1852L100.013 58.1949L100.279 57.9936L98.9081 56.2788L98.8818 56.3016C98.6419 56.4834 98.678 56.6361 98.941 57.1135L96.9225 58.6918C96.3374 59.1465 96.035 59.6174 95.9889 60.1273C95.9495 60.6047 96.1401 61.0983 96.5708 61.6407C96.7582 61.8712 96.9751 62.0564 97.2053 62.1863Z" fill="white"/>
<path fill-rule="evenodd" clip-rule="evenodd" d="M100.624 64.9803L101.817 63.7397L102.438 64.321C102.928 64.7822 102.978 65.2693 102.57 65.698C102.133 66.1429 101.59 66.1461 101.107 65.7012L100.63 65.2433C100.532 65.1524 100.528 65.0809 100.624 64.9803ZM103.348 62.1517L103.851 62.6291C104.266 63.0188 104.289 63.4345 103.907 63.8307C103.618 64.1295 103.154 64.3081 102.707 63.9184L102.149 63.3988L103.348 62.1517ZM101.353 66.4711C102.011 66.8414 102.668 66.7602 103.188 66.2211C103.638 65.7534 103.665 65.1818 103.26 64.6037C103.743 64.7661 104.23 64.646 104.578 64.2855C104.953 63.8958 105.213 63.256 104.325 62.4148L102.649 60.843L102.622 60.8625C102.409 61.0931 102.465 61.2295 102.783 61.6581L99.9629 64.581C99.5158 64.2887 99.3712 64.24 99.1575 64.4706L99.1312 64.4966L100.814 66.0717C100.992 66.2438 101.173 66.377 101.353 66.4711Z" fill="white"/>
<path fill-rule="evenodd" clip-rule="evenodd" d="M107.64 65.5735L107.663 65.58L107.857 65.3169L106.181 64.0861L106.154 64.0666L106.131 64.0926C105.947 64.3394 106.016 64.4596 106.391 64.8493L103.945 68.1099C103.462 67.8696 103.317 67.8436 103.133 68.0839L103.113 68.1164L106.095 70.3021L106.115 70.3151L106.134 70.3021C106.227 70.2404 106.335 70.1462 106.414 70.039C106.585 69.8117 106.746 69.4252 106.795 69.2303L106.802 69.2109L106.582 69.0452L106.562 69.0582C106.355 69.1686 106.151 69.3278 105.895 69.5616L104.543 68.5711L107.002 65.2942C107.193 65.3851 107.453 65.5118 107.64 65.5735Z" fill="white"/>
<path fill-rule="evenodd" clip-rule="evenodd" d="M111.194 67.8759L111.217 67.8824L111.395 67.6031L109.577 66.5022L109.547 66.4827L109.527 66.5119C109.366 66.7685 109.462 66.9081 109.882 67.2719L107.746 70.7208C107.223 70.513 107.055 70.5033 106.894 70.7598L106.881 70.7858L108.696 71.8835L108.725 71.8997L108.903 71.6204L108.886 71.601C108.761 71.4581 108.544 71.2599 108.387 71.1171L110.533 67.6616C110.727 67.7363 110.997 67.8337 111.194 67.8759Z" fill="white"/>
<path fill-rule="evenodd" clip-rule="evenodd" d="M112.223 73.2168C111.779 73.0154 111.483 72.6647 111.375 72.21C111.26 71.7424 111.339 71.1935 111.608 70.6252C112.17 69.4431 113.098 68.9754 114.018 69.4041C114.064 69.4236 114.103 69.4463 114.146 69.4723C114.958 69.9269 115.155 70.898 114.636 71.9859C114.077 73.1551 113.134 73.639 112.223 73.2168ZM115.416 72.2911C115.748 71.5864 115.804 70.8946 115.577 70.2938C115.357 69.7222 114.903 69.2643 114.272 68.972C112.947 68.355 111.504 68.9266 110.84 70.3165C110.508 71.0245 110.442 71.7195 110.656 72.3268C110.866 72.8952 111.31 73.3531 111.938 73.6421C112 73.6746 112.066 73.6973 112.096 73.7071C112.448 74.7626 113.013 75.5355 113.68 75.9155C113.736 75.9447 113.789 75.9739 113.838 75.9934C114.436 76.2694 114.943 76.1558 115.15 76.0421L115.166 76.0324L115.17 75.7628L115.143 75.7563C115.123 75.7531 115.1 75.7466 115.074 75.7433C114.926 75.7174 114.703 75.6686 114.404 75.529C113.779 75.2399 113.217 74.6814 112.734 73.8695C113.841 74.0091 114.89 73.4018 115.416 72.2911Z" fill="white"/>
<path fill-rule="evenodd" clip-rule="evenodd" d="M117.383 75.675C117.58 75.7887 117.814 75.8764 118.08 75.9608C118.655 76.1297 119.191 76.0777 119.638 75.8147C120.079 75.5581 120.411 75.1035 120.588 74.5059L121.328 72.0702C121.88 72.1351 122.035 72.1059 122.114 71.8201L122.127 71.7909L120.191 71.2225L120.158 71.2128L120.056 71.5278L120.079 71.5441C120.233 71.6577 120.519 71.7876 120.75 71.8948L120.033 74.285C119.885 74.7819 119.665 75.1294 119.382 75.3243C119.096 75.5224 118.728 75.5614 118.3 75.4347C117.814 75.2918 117.505 75.058 117.36 74.717C117.229 74.402 117.239 74.009 117.39 73.5121L118.106 71.1219C118.36 71.1511 118.672 71.1998 118.863 71.1868L118.886 71.1836L118.978 70.8718L116.893 70.258L116.861 70.2482L116.851 70.2807C116.768 70.5665 116.88 70.6704 117.38 70.914L116.647 73.353C116.436 74.0577 116.463 74.6163 116.722 75.058C116.87 75.3048 117.087 75.5094 117.383 75.675Z" fill="white"/>
<path fill-rule="evenodd" clip-rule="evenodd" d="M125.509 72.7509C125.525 73.0334 125.561 73.251 125.634 73.5075L125.64 73.527L125.913 73.5693L125.923 73.5498C126.025 73.3776 126.186 73.0204 126.225 72.7541C126.252 72.6047 126.252 72.4878 126.232 72.4034L126.229 72.3774L122.626 71.8383L122.589 71.8318L122.586 71.8707C122.54 72.1728 122.665 72.2572 123.175 72.4261L122.56 76.4207C122.017 76.4369 121.879 76.4759 121.83 76.7844L121.827 76.8169L125.433 77.3592L125.45 77.3625L125.463 77.343C125.519 77.2456 125.565 77.1124 125.581 76.9858C125.627 76.7 125.578 76.3038 125.538 76.1122L125.532 76.0894L125.262 76.0537L125.249 76.0667C125.114 76.2713 125.006 76.4986 124.894 76.8007L123.303 76.5603L123.599 74.6442L124.812 74.8293C125.098 74.8683 125.213 74.7546 125.279 74.6637L125.285 74.6572L125.321 74.3909L123.671 74.1473L123.927 72.5138L125.509 72.7509Z" fill="white"/>
<path fill-rule="evenodd" clip-rule="evenodd" d="M129.194 75.3992L129.187 75.4057V75.8701H130.374C130.772 75.8701 130.91 75.8571 131.035 75.7045L131.041 75.6948V75.2336H129.848C129.453 75.2336 129.315 75.2466 129.194 75.3992Z" fill="white"/>
<path fill-rule="evenodd" clip-rule="evenodd" d="M134.632 77.3176L134.639 77.3501L136.753 77.0773L136.782 77.0708L136.743 76.746L136.716 76.7395C136.575 76.7135 136.345 76.6908 136.023 76.6876L135.595 73.4659L135.592 73.4529L135.576 73.4464C135.464 73.3945 135.323 73.3815 135.152 73.4042C134.8 73.4497 134.389 73.625 134.254 73.6965L134.231 73.7095L134.267 73.9725L134.29 73.979C134.435 73.9985 134.629 74.018 134.922 74.018L135.286 76.7752C134.737 76.9344 134.593 77.0221 134.632 77.3176Z" fill="white"/>
<path fill-rule="evenodd" clip-rule="evenodd" d="M138.554 74.3461L138.863 74.4078C139.534 74.5345 139.895 74.6936 140.014 75.2262C140.122 75.6971 139.836 76.0771 139.287 76.194C138.705 76.3239 138.281 76.0706 138.16 75.5153C138.035 74.9664 138.288 74.6157 138.554 74.3461ZM137.729 72.8968C137.673 72.6598 137.712 72.4617 137.837 72.309C137.949 72.1661 138.136 72.0622 138.373 72.0102C138.597 71.9648 138.797 71.9843 138.962 72.0784C138.978 72.0914 138.994 72.1012 139.011 72.1109C139.175 72.2278 139.3 72.4097 139.353 72.6533C139.435 73.0203 139.33 73.3548 139.034 73.6828L138.945 73.6633C138.307 73.5464 137.847 73.423 137.729 72.8968ZM137.418 75.7329C137.493 76.0771 137.664 76.3369 137.937 76.5123C137.95 76.522 137.973 76.535 137.993 76.5448C138.341 76.7396 138.808 76.7786 139.354 76.6584C140.324 76.4473 140.902 75.7166 140.721 74.9275C140.56 74.2 140.123 73.9434 139.423 73.7681C139.821 73.5277 140.222 73.1088 140.074 72.443C139.942 71.8552 139.413 71.3128 138.318 71.5564C137.848 71.6538 137.48 71.8682 137.25 72.167C137.026 72.4495 136.947 72.7938 137.023 73.1413C137.187 73.872 137.687 74.1188 138.174 74.2552C137.585 74.5962 137.296 75.158 137.418 75.7329Z" fill="white"/>
<path fill-rule="evenodd" clip-rule="evenodd" d="M142.07 75.865L142.08 75.8974L144.112 75.2609L144.145 75.2544L144.043 74.9361H144.02C143.875 74.9361 143.642 74.9556 143.326 75.0043L142.327 71.8931L142.307 71.8899C142.189 71.8639 142.047 71.8736 141.88 71.9223C141.548 72.0263 141.173 72.2763 141.045 72.3673L141.035 72.3867L141.114 72.6368H141.14C141.288 72.6336 141.475 72.6206 141.768 72.5719L142.616 75.2187C142.107 75.4688 141.982 75.5824 142.07 75.865Z" fill="white"/>
<path fill-rule="evenodd" clip-rule="evenodd" d="M145.552 71.7515C145.844 71.6281 146.117 71.6378 146.357 71.7742H146.361C146.581 71.9009 146.775 72.1379 146.91 72.4595C147.051 72.7875 147.094 73.1057 147.028 73.3688C146.969 73.6254 146.808 73.817 146.568 73.9176C146.308 74.0183 146.068 74.0183 145.838 73.9176C145.805 73.9014 145.779 73.8884 145.752 73.8689C145.197 73.5604 144.898 72.7485 144.852 72.6218C144.898 72.3198 145.157 71.9139 145.552 71.7515ZM145.21 74.314C145.23 74.3238 145.25 74.3335 145.269 74.3433C145.703 74.5641 146.196 74.5738 146.699 74.3692C147.147 74.1841 147.479 73.8269 147.633 73.3657C147.774 72.937 147.748 72.4466 147.567 72.0212C147.4 71.6217 147.124 71.3067 146.778 71.1443C146.41 70.969 145.996 70.9657 145.575 71.1378C144.983 71.3814 144.776 71.8231 144.701 72.1089C144.474 70.9332 144.97 69.8388 146.058 69.1665L146.088 69.147L145.894 68.8613L145.874 68.8775C144.148 69.6017 143.455 71.3035 144.181 73.028C144.434 73.632 144.793 74.0737 145.21 74.314Z" fill="white"/>
<path fill-rule="evenodd" clip-rule="evenodd" d="M151.113 70.5306C151.538 70.5339 151.879 70.1929 151.883 69.7772C151.889 69.3582 151.551 69.0172 151.127 69.014C150.703 69.0042 150.357 69.3452 150.354 69.7642C150.351 70.1831 150.689 70.5274 151.113 70.5306Z" fill="white"/>
<path fill-rule="evenodd" clip-rule="evenodd" d="M88.5756 26.0693H88.5559L88.5493 26.0855C88.454 26.2576 88.2764 26.8552 88.2041 27.2741C87.9773 28.505 88.4244 29.5117 89.3646 30.0444C89.6539 30.2002 89.9892 30.3237 90.3639 30.3886C91.909 30.6614 93.0695 29.9242 93.3226 28.5245C93.5034 27.5274 92.9971 26.9364 92.767 26.7253L92.7539 26.7155L92.7374 26.7188C92.6717 26.735 92.5238 26.826 92.4744 26.8844L92.458 26.9039L92.4777 26.9461C92.6125 27.1442 92.9051 27.6086 92.7867 28.2614C92.698 28.768 92.4153 29.1545 91.9682 29.3851C91.5441 29.6027 90.9885 29.6611 90.4067 29.5605C89.7393 29.4435 89.2462 29.2032 88.9438 28.8427C88.6512 28.4952 88.5559 28.0536 88.6446 27.5437C88.7071 27.2157 88.8189 26.9624 88.8846 26.8357C89.3153 26.8357 89.6341 26.7643 89.7492 26.7318L89.7755 26.7253L89.8248 26.459L89.8051 26.4492C89.6276 26.3388 89.2857 26.144 88.9602 26.0887C88.855 26.0693 88.6841 26.0563 88.5756 26.0693Z" fill="white"/>
<path fill-rule="evenodd" clip-rule="evenodd" d="M91.9799 24.2528L90.0371 22.8628L92.4369 22.8433L91.9799 24.2528ZM90.1843 22.1346C89.8358 22.141 89.5827 22.1443 89.4314 22.6184L89.3098 22.9757L93.2876 25.8693C93.2678 26.2168 93.2843 26.3792 93.4486 26.4766C93.4815 26.4864 93.5177 26.5026 93.5538 26.5156L93.5867 26.5253L94.1324 24.8398L94.1423 24.8041L93.8267 24.7099L93.8135 24.7262C93.6853 24.9178 93.5571 25.1516 93.4782 25.3237L92.3868 24.5475L92.9391 22.836L94.2869 22.8263C94.2508 23.0017 94.2212 23.2517 94.208 23.5018V23.5213L94.5203 23.6252L95.1285 21.7546L95.1416 21.7254L95.1088 21.7124C94.8359 21.6279 94.734 21.7448 94.517 22.0923L90.2073 22.1346H90.1843Z" fill="white"/>
<path fill-rule="evenodd" clip-rule="evenodd" d="M91.8691 17.5155L91.5633 17.3823L90.7053 19.3114L90.6922 19.3407L90.7152 19.3504C90.9946 19.4771 91.1228 19.3666 91.4351 18.9087L95.1795 20.5423C95.0414 21.0814 95.0447 21.2373 95.3274 21.3672L95.3603 21.3769L96.2183 19.4576L96.2314 19.4219L95.9224 19.2887L95.9093 19.3114C95.7745 19.4543 95.6134 19.6817 95.495 19.8635L91.7376 18.217C91.7902 18.0124 91.8493 17.7331 91.8691 17.5382V17.5155Z" fill="white"/>
<path fill-rule="evenodd" clip-rule="evenodd" d="M93.703 14.4581C93.966 14.5393 94.3244 14.5945 94.4953 14.5945H94.515L94.6465 14.3639L94.6301 14.3412C94.2652 13.9385 93.9332 13.7144 93.6373 13.656L93.6241 13.6527L93.6143 13.669C93.5124 13.7794 93.2231 14.1139 92.8911 14.7082C92.3651 15.6565 92.4703 16.4262 93.1803 16.8289C93.1869 16.8321 93.1968 16.8354 93.2034 16.8419C93.7162 17.1212 94.229 17.0952 94.7254 16.7575C94.9555 16.6016 95.0805 16.4976 95.2383 16.3612C95.327 16.2865 95.4256 16.1989 95.567 16.0852C95.9385 15.7864 96.2475 15.65 96.7011 15.8903C96.7044 15.8936 96.711 15.8968 96.7143 15.9001C97.1581 16.1501 97.2469 16.6308 96.951 17.1634C96.757 17.5141 96.4908 17.748 96.3001 17.8454C96.0667 17.7545 95.7018 17.6441 95.4092 17.6246H95.3895L95.2547 17.8616L95.2646 17.8811C95.4158 18.0922 95.6755 18.3423 95.9516 18.5014C96.0502 18.5599 96.1521 18.5989 96.2508 18.6281L96.2672 18.6313L96.2804 18.6248C96.4316 18.5372 96.9543 18.2026 97.3751 17.4459C97.9208 16.4684 97.763 15.6435 96.9411 15.1856C96.928 15.1791 96.9214 15.1726 96.9148 15.1629C96.2935 14.8284 95.7215 14.9323 95.0574 15.5006C94.995 15.5558 94.9391 15.6045 94.8898 15.6435C94.7188 15.7962 94.6071 15.8838 94.4296 16.0202C94.0679 16.2865 93.7721 16.3353 93.4795 16.1729C93.4762 16.1696 93.4696 16.1664 93.4663 16.1631C93.0653 15.939 92.9995 15.5331 93.2855 15.0167C93.4433 14.7342 93.611 14.5491 93.703 14.4581Z" fill="white"/>
<path fill-rule="evenodd" clip-rule="evenodd" d="M96.3268 9.77408L96.3071 9.77083L96.294 9.78057C96.1888 9.878 95.8567 10.1768 95.459 10.7321C94.8179 11.622 94.8409 12.4112 95.5181 12.8853C95.9882 13.2231 96.5076 13.2523 97.0402 12.9762C97.2867 12.8463 97.4215 12.7554 97.5958 12.6417C97.6911 12.5768 97.8029 12.5021 97.9607 12.4079C98.3551 12.1481 98.6839 12.0474 99.1047 12.343C99.3052 12.4858 99.4203 12.684 99.4433 12.9015C99.4663 13.1321 99.3808 13.3854 99.2033 13.6323C98.9699 13.957 98.6773 14.1584 98.4768 14.2363C98.2565 14.1129 97.9048 13.97 97.6188 13.9116L97.599 13.9051L97.4347 14.1324L97.4445 14.1551C97.5925 14.4247 97.8785 14.7592 98.1941 14.9346C98.2434 14.967 98.2927 14.9865 98.3387 15.006L98.3519 15.0093L98.365 15.006C98.5261 14.9378 99.0882 14.665 99.5912 13.9635C100.255 13.0412 100.186 12.1968 99.4005 11.6447C98.8252 11.2388 98.2434 11.2745 97.5136 11.7649C97.4478 11.8103 97.3887 11.8558 97.3361 11.8883C97.1454 12.0182 97.0303 12.0961 96.8298 12.2098C96.4452 12.4339 96.146 12.4469 95.8699 12.2553C95.4853 11.9857 95.4655 11.5668 95.814 11.0861C95.9981 10.8231 96.1888 10.6574 96.294 10.5762C96.5438 10.6899 96.9021 10.7873 97.0665 10.8036L97.0796 10.8068L97.244 10.586L97.2243 10.5665C96.9153 10.1248 96.6128 9.85852 96.3268 9.77408Z" fill="white"/>
<path fill-rule="evenodd" clip-rule="evenodd" d="M99.5721 6.66895C99.8154 6.80535 100.019 6.89303 100.272 6.97747L100.295 6.98397L100.473 6.77937L100.463 6.75988C100.378 6.58451 100.164 6.25325 99.9633 6.07138C99.8483 5.97071 99.7497 5.909 99.6642 5.87328L99.6412 5.86354L97.2052 8.54283L97.1789 8.56556L97.2085 8.5883C97.4452 8.79615 97.5833 8.74094 98.0008 8.40968L101.048 11.115C100.762 11.5664 100.719 11.7125 100.953 11.9171L100.979 11.9399L103.435 9.24107L103.422 9.22159C103.372 9.12416 103.284 9.01698 103.185 8.92605C102.971 8.74094 102.61 8.55582 102.422 8.49087L102.399 8.48437L102.218 8.67923L102.228 8.69872C102.327 8.9228 102.458 9.14039 102.652 9.39046L101.568 10.5758L100.115 9.28329L100.936 8.3772C101.13 8.16611 101.097 8.00697 101.055 7.90305L100.851 7.71793L99.7365 8.94229L98.4939 7.83809L99.5623 6.6657L99.5721 6.66895Z" fill="white"/>
<path fill-rule="evenodd" clip-rule="evenodd" d="M103.799 2.82191L104.473 2.32178C105.466 1.57807 106.432 1.72421 107.198 2.72773C107.622 3.28307 107.823 3.77022 107.81 4.23138C107.793 4.73152 107.517 5.17969 106.965 5.59214L106.445 5.97861C106.334 6.0598 106.268 6.05006 106.182 5.93639L103.799 2.82191ZM105.43 7.28739L105.45 7.31012L107.36 5.88766C108.008 5.40377 108.389 4.79646 108.465 4.13394C108.534 3.49741 108.323 2.83164 107.847 2.21459C106.933 1.01297 105.605 0.879816 104.29 1.85735L102.37 3.29281L102.396 3.31554C102.583 3.56561 102.731 3.53638 103.211 3.29605L105.677 6.52095C105.312 6.90742 105.236 7.03732 105.43 7.28739Z" fill="white"/>
<path fill-rule="evenodd" clip-rule="evenodd" d="M109.855 4.06513L109.875 4.09436L113.044 2.31141L113.064 2.30167L113.06 2.27893C113.044 2.17176 112.995 2.03536 112.929 1.92169C112.788 1.67812 112.502 1.39233 112.347 1.27217L112.327 1.25268L112.091 1.38908L112.094 1.41182C112.114 1.65214 112.17 1.89571 112.275 2.19774L110.874 2.98692L109.901 1.3014L110.97 0.700584C111.213 0.564184 111.239 0.408297 111.233 0.297878H110.654L109.651 0.866213L109.323 0.297878H108.451L110.197 3.33441C109.786 3.67541 109.701 3.79558 109.855 4.06513Z" fill="white"/>
<path fill-rule="evenodd" clip-rule="evenodd" d="M115.903 0.354646C115.801 0.555999 115.594 0.731371 115.308 0.845039C114.939 1.00417 114.588 1.02041 114.371 0.981439C114.256 0.776838 114.052 0.497542 113.845 0.296189H113.674L113.539 0.354646L113.536 0.37738C113.513 0.731371 113.608 1.25099 113.845 1.56926L113.855 1.579L113.868 1.58225C114.039 1.60823 114.66 1.66344 115.465 1.33218C115.968 1.12109 116.33 0.8288 116.517 0.491047C116.554 0.426094 116.573 0.364389 116.596 0.296189H115.919C115.909 0.312427 115.912 0.338408 115.903 0.354646Z" fill="white"/>
<path fill-rule="evenodd" clip-rule="evenodd" d="M159.969 58.0854L159.942 58.0659L158.634 59.5208L158.881 59.7384L158.904 59.7287C159.068 59.6377 159.288 59.4624 159.472 59.3162L160.215 59.9722V59.2188L159.857 58.8973C160.153 58.4296 160.192 58.2867 159.969 58.0854Z" fill="white"/>
<path fill-rule="evenodd" clip-rule="evenodd" d="M160.17 65.3511L160.196 65.3739L160.216 65.3511V64.6464C159.989 65.0166 159.966 65.1693 160.17 65.3511Z" fill="white"/>
<path fill-rule="evenodd" clip-rule="evenodd" d="M160.216 61.3333L157.267 60.9825H157.251L157.136 61.1027C156.998 61.2586 156.975 61.4242 157.06 61.6061C157.136 61.7685 157.3 61.9244 157.445 62.051L160.216 64.4835V63.7235L158.004 61.7879L160.216 62.0608V61.3333Z" fill="white"/>
<path fill-rule="evenodd" clip-rule="evenodd" d="M157.029 67.4226C156.812 67.2538 156.493 67.0751 156.336 67.0167L156.316 67.0134L156.112 67.1888L156.119 67.2115C156.319 67.7117 156.549 68.0397 156.806 68.1891L156.822 68.2021L156.832 68.1891C156.96 68.1241 157.358 67.9098 157.881 67.4681C158.719 66.7536 158.883 65.9872 158.338 65.3636C157.96 64.9187 157.473 64.7726 156.888 64.9155C156.615 64.9804 156.464 65.0356 156.27 65.1071C156.151 65.146 156.03 65.1915 155.856 65.2532C155.409 65.4059 155.06 65.4253 154.731 65.0421C154.393 64.6492 154.475 64.1653 154.945 63.7658C155.251 63.5027 155.583 63.3793 155.796 63.3534C155.984 63.5222 156.28 63.7463 156.549 63.8697L156.569 63.8795L156.786 63.6976L156.779 63.6781C156.687 63.3339 156.441 62.863 156.119 62.6324L156.105 62.6226L156.092 62.6259C155.918 62.6551 155.31 62.7883 154.643 63.3534C154.232 63.7009 153.978 64.0906 153.906 64.4705C153.821 64.883 153.949 65.2792 154.271 65.6527C154.735 66.1788 155.31 66.2762 156.132 65.9774C156.211 65.9482 156.276 65.9222 156.339 65.8995C156.549 65.8183 156.687 65.7696 156.904 65.7079C157.335 65.5812 157.627 65.6397 157.848 65.8898C158.157 66.247 158.071 66.6529 157.621 67.0427C157.371 67.2473 157.151 67.3642 157.029 67.4226Z" fill="white"/>
<path fill-rule="evenodd" clip-rule="evenodd" d="M160.128 69.7157C152.01 76.7179 141.382 80.9696 129.745 80.9696C104.252 80.9696 83.5872 60.6171 83.5872 35.5061C83.5872 21.2172 90.2841 8.46869 100.749 0.138672H95.0486C85.6524 9.08354 79.8022 21.6162 79.8022 35.5061C79.8022 62.6743 102.16 84.7012 129.745 84.7012C141.179 84.7012 151.711 80.9042 160.128 74.5365V69.7157Z" fill="white"/>
</svg>
