<svg xmlns="http://www.w3.org/2000/svg" viewBox="0 0 118.45 173.51"><g id="Calque_2" data-name="Calque 2"><g id="Calque_1-2" data-name="Calque 1"><path d="M69.85,106.7c-8-1.9-13.39-8-19.75-12.56-3.51-2.51-7.09-4.68-11.69-4.57a13,13,0,0,0-12.78,10.8c-2,12.54.87,24,7.29,34.9,3.64,6.17,8.94,10.94,13,16.73A13.62,13.62,0,0,1,45,168.86a12.73,12.73,0,0,1-16.54,2.72c-15.8-9.87-25.48-24-27.8-42.74-3-23.93,5.23-45.78,12.75-67.71,3.47-10.12,7.49-20.05,11.39-30,1.06-2.71.67-4.77-1.52-6.61C20,21.75,18.31,17.92,17,14s-.76-7.45,2.34-10.48C22.31.66,26-1.35,29.5,1.1,36.82,6.18,43.73,2.44,50.66.92A41.08,41.08,0,0,1,73.45,2.59C78,4.2,81.56,4.05,85.54,1.76s8.4-2.3,12,.8a9.91,9.91,0,0,1,3.06,9.93c-.88,4.29-2.52,8.27-5.82,11.19-3,2.6-3.17,5.07-1.73,8.72C101.6,54,111,75.25,116,98.06c4.53,20.56,3.46,40.28-9.19,58.06a65,65,0,0,1-13.58,13.47c-7.57,5.86-15.54,4.38-19.92-1-4.54-5.53-5.65-12.87,2.16-20.71,7.41-7.45,13.12-16.06,16-26.29,2-7,3-14.12,1.22-21.42-1.87-7.81-9-12.32-16.88-10.29a20.64,20.64,0,0,0-5.46,2.23c-8,4.82-8.11,6.58-.7,12.58a4.2,4.2,0,0,1,.76,1.23ZM60.17,66c0,2.4.12,3.9,0,5.37-.4,4.18,1.26,5,4.88,3.34a18.7,18.7,0,0,0,8.5-8c3.28-5.82,5.19-12.13,6.73-18.58,1.44-6-.2-10.13-5.77-12.57a37.69,37.69,0,0,0-30.71-.16c-5.48,2.3-7.46,6.22-6.26,12a63.82,63.82,0,0,0,6.7,19.1c2.29,4,5.32,7.08,9.8,8.6,2.69.92,4.11.48,4-2.72-.12-3.48-.1-7,0-10.43.07-2.32-.67-3.55-3.14-4.15A15.31,15.31,0,0,1,44.22,48.9c-2-4.46-1-7.14,3.52-9.08A28.49,28.49,0,0,1,65.2,38.43c3.82.81,8.71,1.29,9.33,6,.65,4.94-2.85,8.5-6.79,11.26a3.38,3.38,0,0,1-1.26.77C60.12,57.35,59.3,61.59,60.17,66Zm7-43c0-2.18.2-4.67-2.52-4.62s-2.49,2.52-2.49,4.5.13,4.26,2.91,4.1S66.93,24.37,67.14,22.92Zm-16.93-.08c.09,1.67-.22,4.16,2.68,4,2.45-.13,2.29-2.4,2.28-4.22,0-2,.15-4.45-2.67-4.31C50.11,18.44,50.21,20.7,50.21,22.84Z"/></g></g></svg>