<?xml version="1.0" encoding="iso-8859-1"?>
<!-- Generator: Adobe Illustrator 16.0.0, SVG Export Plug-In . SVG Version: 6.00 Build 0)  -->
<!DOCTYPE svg PUBLIC "-//W3C//DTD SVG 1.1//EN" "http://www.w3.org/Graphics/SVG/1.1/DTD/svg11.dtd">
<svg version="1.1" id="Calque_1" xmlns="http://www.w3.org/2000/svg" xmlns:xlink="http://www.w3.org/1999/xlink" x="0px" y="0px"
	 width="612px" height="242.76px" viewBox="0 201.52 612 242.76" style="enable-background:new 0 201.52 612 242.76;"
	 xml:space="preserve">
<g id="talents" style="display:none;">
	
		<text transform="matrix(1 0 0 1 0 783.999)" style="display:inline;fill:#0070A1; font-family:'MyriadPro-Regular'; font-size:190.4;">talents</text>
</g>
<g id="experts" style="display:none;">
	
		<text transform="matrix(1 0 0 1 0 783.999)" style="display:inline;fill:#0070A1; font-family:'MyriadPro-Regular'; font-size:190.4;">experts</text>
</g>
<g id="mc2i">
	<g>
		<path style="fill:#1B6A9A;" d="M248.88,443.6h-29.92V326.64c0-23.8-15.64-40.8-39.44-40.8s-39.44,17.68-39.44,40.8V443.6h-29.92
			V326.64c0-23.8-15.64-40.8-39.44-40.8c-23.8,0-39.44,17.68-39.44,40.8V443.6H0V328c0.68-39.44,29.24-70.04,70.72-70.04
			c24.48,0,43.52,11.56,53.72,29.24c10.88-17.68,29.92-29.24,54.4-29.24c40.8,0,70.04,29.92,70.04,69.36V443.6z"/>
		<rect x="581.4" y="258.64" style="fill:#1B6A9A;" width="29.92" height="185.64"/>
		<path style="fill:#1B6A9A;" d="M336.6,443.6l16.32-25.16c-30.6-6.799-51.68-38.08-46.92-72.759
			c5.44-36.04,36.04-62.56,70.04-57.12c19.04,2.72,34,13.6,42.84,29.24l17-26.52c-13.6-16.32-32.64-27.2-56.439-30.6
			c-48.96-6.8-95.88,29.92-103.36,82.28C269.96,387.16,296.48,429.32,336.6,443.6"/>
		<path style="fill:#DD0061;" d="M459.68,415.04l44.2-63.92c13.601-20.4,21.76-34.68,26.521-46.92
			c4.08-10.88,5.439-21.08,4.76-32.64l0,0c0-21.76-10.2-43.52-28.561-56.44c-0.68,0-0.68-0.68-0.68-0.68
			c-0.68-0.68-2.04-1.36-2.72-2.04c-0.681-0.68-2.04-0.68-2.04-1.36c-0.68-0.68-1.36-0.68-2.04-1.36c-2.04-0.68-3.4-2.04-5.44-2.72
			c-0.68-0.68-1.359-0.68-2.04-0.68c-0.68-0.68-2.04-0.68-2.72-0.68l0,0c-5.44-2.04-10.88-3.4-16.32-4.08l-17,25.16
			c2.04,0.68,4.761,0.68,6.801,0.68c10.199,0,18.359,2.72,25.159,6.12c0.681,0,0.681,0.68,0.681,0.68
			c0.68,1.36,1.359,1.36,2.04,2.04c10.2,7.48,15.64,19.04,17,28.56c2.72,20.4-0.681,34-25.84,70.72l-75.48,108.8h113.56
			l19.04-28.561v-0.68H459.68L459.68,415.04z"/>
		<path style="fill:#DD0061;" d="M605.2,233.48h-18.36c-4.08,0-6.8-2.72-6.8-6.8V209c0-4.08,2.72-6.8,6.8-6.8h18.36
			c4.08,0,6.8,2.72,6.8,6.8v18.36C612,230.76,609.28,233.48,605.2,233.48"/>
	</g>
</g>
</svg>
