<svg version="1.1" id="Layer_1" xmlns="http://www.w3.org/2000/svg" preserveAspectRatio="xMidYMid meet" viewBox="0 0 203 75">
	<g fill="#000045" fill-rule="nonzero">
		<path
			class="st0"
			d="M109.1,29.9c-1-2.6-3.1-4.7-5.7-5.7c-1.4-0.6-3-0.8-4.5-0.8c-3.3,0-6.5,0-9.3,1c-0.5,0.2-0.9,0.5-1.2,0.9
		c-0.3,0.4-0.5,0.9-0.5,1.4v25c0,0.4,0.2,0.9,0.5,1.2c0.6,0.6,1.6,0.6,2.3,0l0,0c0.3-0.3,0.5-0.7,0.5-1.2V27.1l0.4-0.1
		c2.4-0.7,4.8-0.5,7.4-0.5c2.1-0.1,4.1,0.6,5.6,2.1c1.4,1.5,2.2,3.6,2,5.7v17.3c0,0.4,0.2,0.9,0.5,1.2c0.7,0.6,1.7,0.6,2.3-0.1l0,0
		c0.3-0.3,0.4-0.7,0.4-1.1v-17C109.9,32.9,109.7,31.3,109.1,29.9"/>
		<path
			class="st0"
			d="M140.4,26c-1-0.8-2.1-1.4-3.3-1.7c-2.8-0.8-5.8-0.8-8.6,0c-1.6,0.4-3.1,1-4.4,1.9c-0.5,0.3-0.8,0.8-0.9,1.4
		c0,0.4,0.1,0.8,0.5,1.1c0.5,0.5,1.3,0.6,1.9,0.2c1.2-0.7,2.4-1.2,3.7-1.7c1.2-0.4,2.5-0.6,3.8-0.6c1.8-0.1,3.7,0.5,5.2,1.5
		c1.3,0.8,2,2.3,1.9,3.9v4.5h-7.7c-1.7,0-3.3,0.2-5,0.6c-1.3,0.3-2.4,0.9-3.4,1.8c-1.8,1.7-2.6,2.5-2.6,5.2
		c-0.2,2.5,0.8,4.9,2.6,6.6c1.9,1.7,4.7,2.6,8.4,2.6c1.6,0,3.1-0.1,4.7-0.4c1.5-0.2,3.1-0.6,4.5-1.2c1-0.3,1.6-1.3,1.7-2.3V31.9
		c0.1-1.1-0.1-2.2-0.7-3.2C142.1,27.7,141.3,26.8,140.4,26 M140,49.2l-0.4,0.1c-2.4,0.7-4.8,1.1-7.3,1.1c-1.4,0.1-2.7-0.1-4-0.6
		c-0.9-0.3-1.7-0.8-2.4-1.5c-0.5-0.6-0.9-1.3-1.1-2.1c-0.2-0.9-0.2-1.8,0-2.8c0.2-0.8,0.6-1.4,1.1-2c0.7-0.7,1.5-1.2,2.4-1.4
		c1.3-0.4,2.7-0.6,4-0.5h7.7V49.2L140,49.2z"/>
		<path class="st0" d="M160.5,46.4V7.2c0-0.8-0.7-1.5-1.5-1.5s-1.5,0.7-1.5,1.5v39.2c0,4.5,2,6.9,6,6.9c0.8,0,1.4-0.7,1.3-1.4
		c0-0.7-0.6-1.3-1.3-1.3h-0.1C160.5,50.5,160.5,47.4,160.5,46.4"/>
		<path class="st0" d="M185.2,24.1c-8.3,0-12.7,5-12.7,14.6s4.4,14.6,12.7,14.6s12.7-5.1,12.7-14.6S193.4,24.1,185.2,24.1
		 M185.2,50.7c-6.4,0-9.6-4-9.6-12s3.2-12,9.6-12s9.6,4,9.6,12C194.8,46.6,191.5,50.7,185.2,50.7"/>

		<path
			class="st0"
			d="M62.1,51c-0.1,1.5-0.9,2.8-2.1,3.7c-1.3,0.9-2.6,1.8-3.9,2.6c0.5-0.6,0.8-1.3,1.1-2c1.2-3.4,2.3-6.8,3.2-10.4
	c0.9-3.2,1.6-6.4,2.2-9.5c0,1,0,2,0,2.9C62.6,42.6,62.4,46.9,62.1,51 M49.3,61.5c-3.7,2.1-7.5,4.1-11.2,5.9c-1.4,0.6-2.9,0.6-4.3,0
	c-1.4-0.7-2.8-1.3-4.2-2.1c0.7,0.1,1.5,0.1,2.2-0.1c3.5-0.6,7.1-1.5,10.7-2.4c3.2-0.9,6.3-1.8,9.3-2.9C50.9,60.5,50.1,61,49.3,61.5
	 M11.8,54.7c-1.2-0.8-2-2.2-2.1-3.7c-0.1-1.5-0.2-3.1-0.3-4.7c0.3,0.7,0.7,1.3,1.1,1.9c2.3,2.7,4.8,5.4,7.4,8
	c2.3,2.3,4.7,4.5,7.1,6.6c-0.9-0.5-1.7-0.9-2.5-1.4C18.9,59.3,15.3,57.1,11.8,54.7 M9.7,25.7c0.1-1.5,0.9-2.8,2.1-3.7
	c1.3-0.9,2.6-1.8,3.9-2.6c-0.5,0.6-0.8,1.2-1.1,2c-1.2,3.3-2.3,6.8-3.2,10.4c-0.9,3.2-1.6,6.4-2.2,9.5c0-1,0-2,0-2.9
	C9.2,34.1,9.4,29.8,9.7,25.7 M22.6,15.2c3.7-2.1,7.5-4.1,11.2-5.9c1.4-0.6,2.9-0.6,4.3,0c1.4,0.7,2.8,1.3,4.2,2.1
	c-0.7-0.1-1.5-0.1-2.2,0.1c-3.5,0.7-7.1,1.5-10.7,2.4c-3.2,0.9-6.3,1.8-9.3,2.9C20.9,16.2,21.7,15.7,22.6,15.2 M51.8,56.5
	c-3.3,1.2-6.7,2.2-10.2,3.2c-3.5,0.9-7,1.7-10.4,2.4c-1.1,0.2-2.2-0.1-3-0.8c-2.7-2.3-5.3-4.7-7.8-7.3c-2.5-2.5-5-5.2-7.3-7.8
	c-0.7-0.8-1-1.9-0.8-3c0.6-3.4,1.4-7,2.4-10.4c0.9-3.5,2-6.9,3.2-10.2c0.4-1.1,1.2-1.9,2.3-2.3c3.3-1.2,6.7-2.2,10.2-3.2
	c3.5-0.9,7-1.7,10.4-2.4c1.1-0.2,2.2,0.1,3,0.8c2.7,2.3,5.3,4.7,7.8,7.3s5,5.2,7.3,7.8c0.7,0.8,1,1.9,0.8,3c-0.6,3.4-1.4,7-2.4,10.4
	c-0.9,3.5-2,6.9-3.2,10.2C53.7,55.3,52.8,56.1,51.8,56.5 M60,22c1.2,0.8,2,2.2,2.1,3.7s0.2,3.1,0.3,4.7c-0.3-0.7-0.7-1.3-1.1-1.9
	c-2.3-2.7-4.8-5.4-7.4-8c-2.3-2.3-4.7-4.5-7.1-6.6c0.9,0.5,1.7,0.9,2.5,1.4C53,17.3,56.6,19.6,60,22 M65.4,25.4
	c-0.2-2.5-1.5-4.7-3.5-6.1c-3.5-2.4-7.1-4.7-11-6.9c-3.8-2.2-7.6-4.2-11.4-6c-2.3-1.1-4.9-1.1-7.1,0c-3.8,1.8-7.6,3.8-11.4,6
	s-7.5,4.5-11,6.9c-2,1.4-3.3,3.6-3.5,6.1C6.1,29.6,6,33.9,6,38.3s0.2,8.8,0.5,13C6.7,53.8,8,56,10,57.4c3.5,2.4,7.1,4.7,11,6.9
	c3.8,2.2,7.6,4.2,11.4,6c2.3,1.1,4.9,1.1,7.1,0c3.8-1.8,7.6-3.8,11.4-6c3.8-2.2,7.5-4.5,11-6.9c2-1.4,3.3-3.6,3.5-6.1
	c0.3-4.2,0.5-8.5,0.5-13C65.9,33.9,65.8,29.6,65.4,25.4"/>
	</g>
</svg>
