<svg width="145" height="89" viewBox="0 0 145 89" fill="none" xmlns="http://www.w3.org/2000/svg">
<path fill-rule="evenodd" clip-rule="evenodd" d="M96.4503 62.5354C100.682 62.5354 103.677 63.4063 105.437 65.1474C107.195 66.8892 108.075 69.3789 108.075 72.618C108.075 73.907 107.936 75.8571 107.657 78.4691H94.5429C94.682 80.3497 95.8313 81.2902 97.9918 81.2902C99.0016 81.2902 101.649 80.9247 105.933 80.1932L106.821 87.2457C103.129 88.2203 99.6806 88.7082 96.4765 88.7082C92.2961 88.7082 89.1003 87.5591 86.889 85.2604C84.6764 82.9621 83.5711 79.7411 83.5711 75.5959C83.5711 71.4514 84.6594 68.2386 86.8369 65.957C89.013 63.6764 92.2184 62.5354 96.4503 62.5354ZM54.6455 62.4635C57.4675 62.4635 60.132 62.9334 62.64 63.8738L61.5426 72.128C58.8259 71.1537 56.9881 70.6651 56.0304 70.6651C55.0721 70.6651 54.4453 71.0832 54.1496 71.9189C53.8529 72.7547 53.7056 74.0437 53.7056 75.7852C53.7056 77.527 53.8441 78.7886 54.1234 79.5723C54.402 80.3559 55.0636 80.748 56.1089 80.748C57.1541 80.748 58.8078 80.5216 61.0726 80.0687L62.2219 87.3303C59.1563 88.2005 56.5792 88.6363 54.489 88.6363C50.623 88.6363 47.7054 87.5222 45.738 85.2928C43.7696 83.0644 42.7857 79.947 42.7857 75.942C42.7857 71.9374 43.7955 68.689 45.8161 66.1984C47.8361 63.7091 50.7795 62.4635 54.6455 62.4635ZM82.5044 62.7964L82.191 71.4683H78.6381C77.5935 71.4683 76.8613 71.6606 76.4436 72.0432C76.0255 72.4272 75.8168 73.1402 75.8168 74.185V88.186H65.0537V63.1623H74.3537L74.6671 64.8339H74.8762C75.7121 64.0684 76.67 63.5367 77.7504 63.2408C78.8291 62.9451 80.4146 62.7964 82.5044 62.7964ZM119.022 63.1623L119.962 74.2896H120.275L121.738 63.1623H130.464L131.823 74.2896H132.188L133.233 63.1623H143.003L139.346 88.1859H127.695L125.918 79.6184H125.657L123.985 88.1859H112.543L108.886 63.1623H119.022ZM96.2672 70.9461C95.5356 70.9461 95.0306 71.1735 94.7519 71.6253C94.4726 72.0785 94.3338 72.7745 94.3338 73.715H98.0961V72.8788C98.0961 71.5912 97.486 70.9461 96.2672 70.9461ZM42.1376 34.7434C46.3691 34.7434 49.3648 35.6143 51.1242 37.3554C52.8825 39.0972 53.7628 41.5868 53.7628 44.8259C53.7628 46.1149 53.6229 48.0651 53.3446 50.6771H40.2305C40.3697 52.5577 41.5189 53.4982 43.6787 53.4982C44.6889 53.4982 47.336 53.1326 51.6204 52.4012L52.5088 59.4537C48.8157 60.4282 45.3675 60.9165 42.1635 60.9165C37.9838 60.9165 34.7873 59.767 32.576 57.4684C30.3641 55.1701 29.2584 51.9487 29.2584 47.8039C29.2584 43.6594 30.347 40.4465 32.5242 38.1649C34.7006 35.8843 37.9053 34.7434 42.1376 34.7434ZM64.4936 34.7433C67.5414 34.7433 70.8941 35.0918 74.551 35.7881L73.4543 43.6767C68.8565 42.7713 66.0692 42.3182 65.0945 42.3182C64.6413 42.3182 64.4155 42.4928 64.4155 42.8406C64.4155 43.1202 64.7112 43.363 65.3036 43.572C68.1942 44.5125 70.284 45.4448 71.5731 46.3671C72.8612 47.2906 73.7496 48.2399 74.2376 49.2145C74.7253 50.1897 74.9692 51.3218 74.9692 52.6101C74.9692 58.1475 71.7471 60.9164 65.3036 60.9164C61.9601 60.9164 58.7202 60.5505 55.5851 59.8194L56.2648 52.1399C60.6184 53.1847 63.509 53.7071 64.938 53.7071C65.4256 53.7071 65.6691 53.5506 65.6691 53.2369C65.6691 52.9235 65.3902 52.6623 64.8333 52.4532C61.2453 51.2345 58.6333 49.9459 56.9966 48.5877C55.3583 47.2292 54.5405 45.279 54.5405 42.7362C54.5405 40.1941 55.4371 38.2266 57.2313 36.8329C59.0251 35.4403 61.4454 34.7433 64.4936 34.7433ZM115.979 34.7435V41.2807H112.013V41.4952C113.121 42.3525 113.675 43.621 113.675 45.2997C113.675 50.9084 110.066 53.7131 102.849 53.7131H99.4727C99.1862 53.7131 99.044 53.8737 99.044 54.1953C99.044 54.5169 99.1862 54.6775 99.4727 54.6775H107.994C112.567 54.6775 114.854 56.5352 114.854 60.2504L114.847 60.3939H91.6739C90.0499 59.535 89.2369 58.113 89.2369 56.1243C89.2369 54.1237 90.5942 52.5698 93.3099 51.4622C90.8091 49.6761 89.5585 47.2021 89.5585 44.0404C89.5585 40.8791 90.5942 38.5395 92.6667 37.0207C94.7381 35.5029 97.6506 34.7435 101.402 34.7435H115.979ZM12.8529 27.9522C18.3913 27.9522 22.3094 29.2842 24.6084 31.9484C26.9073 34.6129 28.0565 38.4525 28.0565 43.4676C28.0565 54.7521 22.9015 60.3939 12.5917 60.3939H0V27.9522H12.8529ZM128.181 34.7434L128.495 36.9899C130.689 35.4925 133.074 34.7434 135.653 34.7434C140.529 34.7434 142.967 37.1123 142.967 41.848V60.3941H131.943V44.1989C131.943 43.6427 131.656 43.3631 131.081 43.3631C130.506 43.3631 129.87 43.5383 129.174 43.8855V60.3941H118.307V34.7434H128.181ZM87.6497 35.2657V60.3941H76.7823V35.2657H87.6497ZM12.2257 36.4672H11.129V52.2445H12.4351C14.2116 52.2445 15.3609 51.6354 15.8833 50.416C16.4055 49.197 16.667 47.1687 16.667 44.3296C16.667 41.4915 16.3799 39.4714 15.8049 38.2694C15.2302 37.0681 14.0366 36.4672 12.2257 36.4672ZM101.769 43.7806C101.037 43.7806 100.532 44.008 100.254 44.4599C99.9747 44.913 99.8356 45.609 99.8356 46.5495H103.598V45.7137C103.598 44.4261 102.988 43.7806 101.769 43.7806ZM41.9548 43.154C41.2229 43.154 40.7182 43.3815 40.4396 43.8333C40.1603 44.2865 40.0215 44.9825 40.0215 45.9229H43.7831V45.0868C43.7831 43.7992 43.1733 43.154 41.9548 43.154ZM82.7523 6.79145C86.9835 6.79145 89.9795 7.66235 91.7389 9.40348C93.4973 11.1453 94.3771 13.6349 94.3771 16.8737C94.3771 18.163 94.2377 20.1131 93.959 22.7252H80.8449C80.984 24.6058 82.1333 25.5462 84.2934 25.5462C85.3036 25.5462 87.9504 25.1803 92.2348 24.4493L93.1232 31.5017C89.4304 32.4763 85.9822 32.9643 82.7779 32.9643C78.5982 32.9643 75.402 31.8151 73.1907 29.5165C70.9784 27.2178 69.8731 23.9967 69.8731 19.8519C69.8731 15.7075 70.9614 12.4946 73.1386 10.213C75.315 7.93242 78.5197 6.79145 82.7523 6.79145ZM40.6516 0V32.442H29.6031V8.82873H22.3408L22.8111 0H40.6516ZM53.8599 0.201597V8.98532C55.9842 7.52278 58.3353 6.79135 60.9132 6.79135C65.6498 6.79135 68.0186 8.98532 68.0186 13.3736V32.4421H56.9947V16.2468C56.9947 15.6907 56.7072 15.411 56.1329 15.411C55.5579 15.411 54.9225 15.5863 54.2258 15.9335V32.4421H43.3584V0.201597H53.8599ZM82.5692 15.2021C81.8376 15.2021 81.3326 15.4296 81.054 15.881C80.7746 16.3346 80.6358 17.0305 80.6358 17.9707H84.3978V17.1349C84.3978 15.8473 83.7877 15.2021 82.5692 15.2021Z" fill="#151428"/>
</svg>
